<svg xmlns="http://www.w3.org/2000/svg" width="16" height="16"
     preserveAspectRatio="xMidYMid" viewBox="0 0 255.132 255.131">
  <path fill="#1a1918"
        d="M255.132 127.566c0 70.455-57.11 127.565-127.566 127.565C57.116 255.131 0 198.021 0 127.566 0 57.116 57.116 0 127.566 0c70.456 0 127.566 57.116 127.566 127.566"/>
  <path fill="#fff"
        d="m129.713 77.927 33.012 81.476-49.864-39.278 16.852-42.198zm58.645 100.245L137.577 55.97c-1.449-3.524-4.347-5.39-7.865-5.39-3.524 0-6.634 1.866-8.083 5.39L65.897 190.01h19.065l22.062-55.265 65.84 53.19c2.647 2.14 4.558 3.109 7.041 3.109 4.974 0 9.322-3.729 9.322-9.111 0-.876-.31-2.266-.87-3.761z"/>
</svg>
