<?xml version="1.0" encoding="iso-8859-1"?>
<!-- Uploaded to: SVG Repo, www.svgrepo.com, Generator: SVG Repo Mixer Tools -->
<svg version="1.1" id="Layer_1" xmlns="http://www.w3.org/2000/svg" xmlns:xlink="http://www.w3.org/1999/xlink" 
	 viewBox="0 0 511.999 511.999" xml:space="preserve">
<g>
	<rect x="33.67" y="338.407" style="fill:#959CB5;" width="196.674" height="34.204"/>
	<rect x="221.793" y="278.549" style="fill:#959CB5;" width="51.306" height="59.857"/>
</g>
<path style="fill:#C7CFE2;" d="M126.047,141.847l-27.979,76.872c-3.23,8.876,1.346,18.689,10.222,21.92l289.273,105.287
	c8.875,3.23,18.689-1.346,21.919-10.222l11.065-30.401L126.047,141.847z"/>
<g>
	<path style="fill:#D5DCED;" d="M271.791,329.86h-48.69c-5.203,0-9.201,4.609-8.466,9.76l5.059,35.413
		c1.204,8.425,8.42,14.683,16.93,14.683h21.642c8.51,0,15.726-6.258,16.93-14.683l5.059-35.413
		C280.991,334.468,276.994,329.86,271.791,329.86z"/>
	<path style="fill:#D5DCED;" d="M25.119,406.819h-8.551c-4.722,0-8.551-3.829-8.551-8.551v-85.51c0-4.722,3.829-8.551,8.551-8.551
		h8.551c9.446,0,17.102,7.656,17.102,17.102v68.408C42.221,399.162,34.564,406.819,25.119,406.819z"/>
</g>
<g>
	<path style="fill:#C7CFE2;" d="M244.041,375.033l-5.059-35.413c-0.735-5.151,3.261-9.76,8.464-9.76h-24.346
		c-5.204,0-9.201,4.609-8.464,9.76l5.059,35.413c1.204,8.425,8.42,14.683,16.93,14.683h21.641c0.461,0,0.9-0.088,1.353-0.124
		C251.715,388.963,245.18,383.003,244.041,375.033z"/>
	<path style="fill:#C7CFE2;" d="M25.119,372.615h-8.551c-4.722,0-8.551-3.829-8.551-8.551v34.204c0,4.722,3.829,8.551,8.551,8.551
		h8.551c9.445,0,17.102-7.657,17.102-17.102v-34.204C42.221,364.958,34.563,372.615,25.119,372.615z"/>
</g>
<path style="fill:#AFB9D2;" d="M109.767,186.578l67.973,24.74c6.161,2.243,11.763,5.595,16.65,9.965l49.012,43.825
	c8.146,7.283,17.483,12.871,27.751,16.609l148.327,53.987l0,0l11.065-30.401L126.047,141.847L109.767,186.578z"/>
<path style="fill:#D5DCED;" d="M498.347,237.011L139.012,106.224c-8.876-3.23-18.689,1.346-21.92,10.222l-14.623,40.177
	c-1.615,4.438,0.673,9.345,5.111,10.96l76.009,27.665c8.178,2.977,15.713,7.485,22.201,13.287l49.013,43.825
	c6.488,5.801,14.023,10.31,22.201,13.287l166.16,60.477c3.688,1.341,7.815,0.002,10.011-3.249l49.334-73.042
	C505.622,245.223,503.575,238.914,498.347,237.011z"/>
<path d="M511.181,239.932c-1.586-4.887-5.264-8.697-10.092-10.455L141.755,98.691c-6.305-2.294-13.127-1.997-19.208,0.839
	s-10.693,7.87-12.988,14.174l-14.623,40.177c-3.123,8.584,1.318,18.11,9.903,21.234l0.501,0.183l-14.806,40.678
	c-2.295,6.305-1.997,13.126,0.839,19.207s7.869,10.693,14.174,12.988l108.228,39.393v37.179c-1.165,0.795-2.248,1.725-3.191,2.812
	c-0.764,0.882-1.423,1.835-1.977,2.839H50.237v-9.085c0-13.851-11.268-25.119-25.119-25.119H8.017C3.589,296.19,0,299.78,0,304.207
	v102.612c0,4.427,3.589,8.017,8.017,8.017h17.102c13.851,0,25.119-11.268,25.119-25.119v-9.085h162.588
	c3.395,10.007,12.936,17.102,23.8,17.102h21.641c12.42,0,23.11-9.271,24.866-21.567l5.059-35.413
	c0.68-4.758-0.736-9.568-3.885-13.199c-0.944-1.088-2.026-2.017-3.191-2.812v-12.668L394.82,353.46
	c2.804,1.021,5.709,1.529,8.607,1.529c3.618,0,7.223-0.792,10.6-2.367c6.081-2.836,10.693-7.869,12.988-14.174l3.107-8.537
	l10.299,3.749c1.864,0.679,3.783,1.005,5.678,1.005c5.382,0,10.565-2.632,13.718-7.3l49.334-73.042
	C512.027,250.063,512.766,244.818,511.181,239.932z M34.204,389.717c0,5.01-4.076,9.085-9.085,9.085h-9.085v-86.579h9.085
	c5.01,0,9.085,4.076,9.085,9.085V389.717z M50.237,346.428H207.51l2.595,18.171H50.237V346.428z M272.32,338.486l-5.059,35.413
	c-0.635,4.448-4.502,7.801-8.995,7.801h-21.641c-4.492,0-8.359-3.353-8.995-7.801l-5.059-35.413
	c-0.01-0.066-0.034-0.242,0.125-0.425c0.159-0.184,0.337-0.184,0.403-0.184h48.69c0.067,0,0.244,0,0.403,0.184
	C272.352,338.244,272.328,338.42,272.32,338.486z M265.082,321.843h-35.273V293.4l35.273,12.838V321.843z M495.865,245.346
	l-49.334,73.042c-0.137,0.203-0.392,0.286-0.625,0.202l-49.972-18.189c-4.16-1.513-8.762,0.631-10.275,4.792
	c-1.515,4.16,0.631,8.761,4.792,10.275l24.607,8.956l-3.107,8.537c-0.829,2.281-2.498,4.101-4.698,5.127
	c-2.201,1.026-4.668,1.133-6.948,0.304L111.031,233.105c-2.28-0.829-4.101-2.498-5.126-4.698c-1.025-2.2-1.133-4.667-0.302-6.948
	l14.806-40.678l60.441,21.999c7.251,2.639,13.845,6.585,19.599,11.73l49.012,43.825c7.281,6.511,15.626,11.504,24.802,14.845
	l41.249,15.012c4.161,1.514,8.761-0.631,10.275-4.792c1.515-4.16-0.631-8.761-4.792-10.275l-41.249-15.012
	c-7.251-2.639-13.845-6.586-19.599-11.73l-49.012-43.825c-7.281-6.509-15.626-11.503-24.802-14.844l-76.008-27.665
	c-0.277-0.1-0.421-0.408-0.32-0.685l14.623-40.177c0.829-2.28,2.498-4.101,4.698-5.126c2.2-1.026,4.667-1.134,6.948-0.304
	l359.334,130.786c0.073,0.027,0.245,0.089,0.326,0.338C496.011,245.13,495.909,245.282,495.865,245.346z"/>
<path d="M363.789,288.703l-10.987-3.999c-4.161-1.515-8.761,0.631-10.275,4.792c-1.515,4.16,0.631,8.761,4.792,10.275l10.987,3.999
	c0.905,0.329,1.831,0.485,2.741,0.485c3.274,0,6.349-2.021,7.533-5.277C370.094,294.818,367.949,290.217,363.789,288.703z"/>
</svg>