<?xml version="1.0" encoding="iso-8859-1"?>
<!-- Uploaded to: SVG Repo, www.svgrepo.com, Generator: SVG Repo Mixer Tools -->
<svg version="1.1" id="Layer_1" xmlns="http://www.w3.org/2000/svg" xmlns:xlink="http://www.w3.org/1999/xlink" 
	 viewBox="0 0 508 508" xml:space="preserve">
<rect x="6" y="104" style="fill:#D6B34C;" width="304" height="24"/>
<rect x="6" y="28" style="fill:#E36D60;" width="24" height="76"/>
<rect x="30" y="40" style="fill:#73BADD;" width="24" height="64"/>
<rect x="54" y="28" style="fill:#F0C960;" width="24" height="76"/>
<rect x="78" y="40" style="fill:#61C2AB;" width="24" height="64"/>
<rect x="182" y="28" style="fill:#7D8B95;" width="24" height="76"/>
<rect x="206" y="40" style="fill:#F0C960;" width="24" height="64"/>
<rect x="322" y="224" style="fill:#ACD9EA;" width="128" height="24"/>
<rect x="334" y="200" style="fill:#CDEEF9;" width="104" height="24"/>
<rect x="346" y="176" style="fill:#F4EFEF;" width="104" height="24"/>
<polygon style="fill:#D6B34C;" points="502,272 502,248 6,248 6,476 30,476 30,272 "/>
<g>
	<rect x="314" y="408" style="fill:#E8BB85;" width="188" height="68"/>
	<rect x="314" y="340" style="fill:#E8BB85;" width="188" height="68"/>
	<rect x="314" y="272" style="fill:#E8BB85;" width="188" height="68"/>
</g>
<path style="fill:#61C2AB;" d="M142,352h-30.8c-8.8,0-17.2-9.2-17.2-18V198c0-8.8,8.4-14,17.2-14h96c8.8,0,14.8,5.2,14.8,14v136
	c0,8.8-6,18-14.8,18H174"/>
<path style="fill:#4BB19B;" d="M170,372h37.2c8.8,0,16,7.2,16,16l0,0c0,8.8-7.2,16-16,16h-96c-8.8,0-16-7.2-16-16l0,0
	c0-8.8,7.2-16,16-16H146"/>
<path style="fill:#7D8B95;" d="M158,282c-6.8,0-12,5.2-12,12v94h24v-94C170,287.2,164.8,282,158,282z"/>
<rect x="150" y="404" style="fill:#676767;" width="16" height="56"/>
<g>
	<circle style="fill:#10927A;" cx="107.2" cy="466" r="8"/>
	<circle style="fill:#10927A;" cx="215.2" cy="466" r="8"/>
</g>
<path d="M504,278H222c-2.4,0-4-1.6-4-4s1.6-4,4-4h278v-16H222c-2.4,0-4-1.6-4-4s1.6-4,4-4h282c2.4,0,4,1.6,4,4v24
	C508,276.4,506.4,278,504,278z"/>
<path d="M28,482H4c-2.4,0-4-1.6-4-4V250c0-2.4,1.6-4,4-4h86c2.4,0,4,1.6,4,4s-1.6,4-4,4H8v220h16V274c0-2.4,1.6-4,4-4h62
	c2.4,0,4,1.6,4,4s-1.6,4-4,4H32v200C32,480.4,30.4,482,28,482z"/>
<path d="M486,342H314c-2.4,0-4-1.6-4-4s1.6-4,4-4h172c2.4,0,4,1.6,4,4S488.4,342,486,342z"/>
<path d="M434,378h-48c-2.4,0-4-1.6-4-4s1.6-4,4-4h48c2.4,0,4,1.6,4,4S436.4,378,434,378z"/>
<path d="M434,310h-48c-2.4,0-4-1.6-4-4s1.6-4,4-4h48c2.4,0,4,1.6,4,4S436.4,310,434,310z"/>
<path d="M434,450h-48c-2.4,0-4-1.6-4-4s1.6-4,4-4h48c2.4,0,4,1.6,4,4S436.4,450,434,450z"/>
<path d="M486,414H314c-2.4,0-4-1.6-4-4s1.6-4,4-4h172c2.4,0,4,1.6,4,4S488.4,414,486,414z"/>
<path d="M504,482H312c-2.4,0-4-1.6-4-4V274c0-2.4,1.6-4,4-4h192c2.4,0,4,1.6,4,4v204C508,480.4,506.4,482,504,482z M316,474h184V278
	H316V474z"/>
<path d="M308,134H4c-2.4,0-4-1.6-4-4v-24c0-2.4,1.6-4,4-4h304c2.4,0,4,1.6,4,4v24C312,132.4,310.4,134,308,134z M8,126h296v-16H8
	V126z"/>
<path d="M28,110H4c-2.4,0-4-1.6-4-4V30c0-2.4,1.6-4,4-4h24c2.4,0,4,1.6,4,4v76C32,108.4,30.4,110,28,110z M8,102h16V34H8V102z"/>
<path d="M52,110H28c-2.4,0-4-1.6-4-4V42c0-2.4,1.6-4,4-4h24c2.4,0,4,1.6,4,4v64C56,108.4,54.4,110,52,110z M32,102h16V46H32V102z"/>
<path d="M76,110H52c-2.4,0-4-1.6-4-4V30c0-2.4,1.6-4,4-4h24c2.4,0,4,1.6,4,4v76C80,108.4,78.4,110,76,110z M56,102h16V34H56V102z"/>
<path d="M100,110H76c-2.4,0-4-1.6-4-4V42c0-2.4,1.6-4,4-4h24c2.4,0,4,1.6,4,4v64C104,108.4,102.4,110,100,110z M80,102h16V46H80V102
	z"/>
<path d="M204,110h-24c-2.4,0-4-1.6-4-4V30c0-2.4,1.6-4,4-4h24c2.4,0,4,1.6,4,4v76C208,108.4,206.4,110,204,110z M184,102h16V34h-16
	V102z"/>
<path d="M228,110h-24c-2.4,0-4-1.6-4-4V42c0-2.4,1.6-4,4-4h24c2.4,0,4,1.6,4,4v64C232,108.4,230.4,110,228,110z M208,102h16V46h-16
	V102z"/>
<path d="M448,254H320c-2.4,0-4-1.6-4-4v-24c0-2.4,1.6-4,4-4h128c2.4,0,4,1.6,4,4v24C452,252.4,450.4,254,448,254z M324,246h120v-16
	H324V246z"/>
<path d="M436,230H332c-2.4,0-4-1.6-4-4v-24c0-2.4,1.6-4,4-4h104c2.4,0,4,1.6,4,4v24C440,228.4,438.4,230,436,230z M336,222h96v-16
	h-96V222z"/>
<path d="M448,206H344c-2.4,0-4-1.6-4-4v-24c0-2.4,1.6-4,4-4h104c2.4,0,4,1.6,4,4v24C452,204.4,450.4,206,448,206z M348,198h96v-16
	h-96V198z"/>
<path d="M208.8,356h-37.2c-2.4,0-4-1.6-4-4s1.6-4,4-4h37.2c6,0,8.8-9.6,8.8-16V196c0-6.4-2-8-8.8-8h-99.6c-6.8,0-11.2,4-11.2,10.4
	V332c0,7.2,4.8,16,10.8,16H144c2.4,0,4,1.6,4,4s-1.6,4-4,4h-35.2C97.6,356,90,343.2,90,332V198.4c0-10.8,8-18.4,19.2-18.4h99.6
	c11.2,0,16.8,5.2,16.8,16v136C225.6,343.6,219.6,356,208.8,356z"/>
<path d="M208.8,408h-96c-11.2,0-20-8.8-20-20s8.8-20,20-20h30.8c2.4,0,4,1.6,4,4s-1.6,4-4,4h-30.8c-6.8,0-12,5.2-12,12s5.2,12,12,12
	h96c6.8,0,12-5.2,12-12s-5.2-12-12-12h-37.2c-2.4,0-4-1.6-4-4s1.6-4,4-4h37.2c11.2,0,20,8.8,20,20S219.6,408,208.8,408z"/>
<path d="M169.6,392h-24c-2.4,0-4-1.6-4-4v-96c0-8.8,7.2-16,16-16s16,7.2,16,16v96C173.6,390.4,171.6,392,169.6,392z M149.6,384h16
	v-92c0-4.4-3.6-8-8-8s-8,3.6-8,8V384z"/>
<path d="M165.6,464h-16c-2.4,0-4-1.6-4-4v-54c0-2.4,1.6-4,4-4s4,1.6,4,4v50h8v-50c0-2.4,1.6-4,4-4s4,1.6,4,4v54
	C169.6,462.4,167.6,464,165.6,464z"/>
<path d="M207.6,464h-92c-2.4,0-4-1.6-4-4s1.6-4,4-4h92c2.4,0,4,1.6,4,4S209.6,464,207.6,464z"/>
<path d="M108.8,476c-6.8,0-12-5.2-12-12s5.2-12,12-12s12,5.2,12,12S115.2,476,108.8,476z M108.8,460c-2.4,0-4,1.6-4,4s1.6,4,4,4
	s4-1.6,4-4S110.8,460,108.8,460z"/>
<path d="M216.8,476c-6.8,0-12-5.2-12-12s5.2-12,12-12s12,5.2,12,12S223.2,476,216.8,476z M216.8,460c-2.4,0-4,1.6-4,4s1.6,4,4,4
	s4-1.6,4-4S218.8,460,216.8,460z"/>
</svg>