<svg xmlns="http://www.w3.org/2000/svg" xml:space="preserve" id="layer"
     width="22.3" height="16" x="0" y="0" version="1.1"
     viewBox="0 0 215.613 154.7"><defs id="defs1905"><clipPath id="clipPath2083" clipPathUnits="userSpaceOnUse"><path id="rect2085" d="M15.865 239.964h224.668v170.788H15.865z" style="fill:green;fill-opacity:.439267;stroke-width:.912543"/></clipPath><clipPath
  id="clipPath2087" clipPathUnits="userSpaceOnUse"><path id="rect2089" d="M15.865 239.964h224.668v170.788H15.865z" style="fill:green;fill-opacity:.439267;stroke-width:.912543"/></clipPath><clipPath
  id="clipPath2091" clipPathUnits="userSpaceOnUse"><path id="rect2093" d="M15.865 239.964h224.668v170.788H15.865z" style="fill:green;fill-opacity:.439267;stroke-width:.912543"/></clipPath><clipPath
  id="clipPath2095" clipPathUnits="userSpaceOnUse"><path id="rect2097" d="M15.865 239.964h224.668v170.788H15.865z" style="fill:green;fill-opacity:.439267;stroke-width:.912543"/></clipPath><clipPath
  id="clipPath2099" clipPathUnits="userSpaceOnUse"><path id="rect2101" d="M15.865 239.964h224.668v170.788H15.865z" style="fill:green;fill-opacity:.439267;stroke-width:.912543"/></clipPath><clipPath
  id="clipPath2103" clipPathUnits="userSpaceOnUse"><path id="rect2105" d="M15.865 239.964h224.668v170.788H15.865z" style="fill:green;fill-opacity:.439267;stroke-width:.912543"/></clipPath><clipPath
  id="clipPath2107" clipPathUnits="userSpaceOnUse"><path id="rect2109" d="M15.865 239.964h224.668v170.788H15.865z" style="fill:green;fill-opacity:.439267;stroke-width:.912543"/></clipPath><clipPath
  id="clipPath2111" clipPathUnits="userSpaceOnUse"><path id="rect2113" d="M15.865 239.964h224.668v170.788H15.865z" style="fill:green;fill-opacity:.439267;stroke-width:.912543"/></clipPath><clipPath
  id="clipPath2115" clipPathUnits="userSpaceOnUse"><path id="rect2117" d="M15.865 239.964h224.668v170.788H15.865z" style="fill:green;fill-opacity:.439267;stroke-width:.912543"/></clipPath><clipPath
  id="clipPath2119" clipPathUnits="userSpaceOnUse"><path id="rect2121" d="M15.865 239.964h224.668v170.788H15.865z" style="fill:green;fill-opacity:.439267;stroke-width:.912543"/></clipPath></defs>
  <style id="style1864" type="text/css">.st0{fill:#0091e2}</style>
  <path id="path1882"
        d="M234.4 303.4c-.6-.5-6-4.6-17.6-4.6-3 0-6.1.3-9.1.8-2.2-15.3-14.9-22.7-15.4-23.1l-3.1-1.8-2 2.9c-2.5 3.9-4.4 8.3-5.5 12.8-2.1 8.7-.8 16.9 3.6 23.9-5.3 3-13.9 3.7-15.7 3.8h-142c-3.7 0-6.7 3-6.7 6.7-.2 12.4 1.9 24.8 6.2 36.5 4.9 12.8 12.2 22.3 21.6 28.1 10.6 6.5 27.9 10.2 47.4 10.2 8.8 0 17.6-.8 26.3-2.4 12.1-2.2 23.7-6.4 34.4-12.5 8.8-5.1 16.7-11.6 23.4-19.2 11.3-12.7 18-26.9 22.9-39.5h2c12.3 0 19.9-4.9 24.1-9.1 2.8-2.6 4.9-5.8 6.4-9.4l.9-2.6z"
        class="st0" clip-path="url(#clipPath2119)"
        transform="translate(-20.887 -244.9)"/>
  <path id="path1884"
        d="M40.8 314h19c.9 0 1.7-.7 1.7-1.7v-17c0-.9-.7-1.7-1.7-1.7h-19c-.9 0-1.7.7-1.7 1.7v17c.1 1 .8 1.7 1.7 1.7"
        class="st0" clip-path="url(#clipPath2115)"
        transform="translate(-20.887 -244.9)"/>
  <path id="path1886"
        d="M67 314h19c.9 0 1.7-.7 1.7-1.7v-17c0-.9-.7-1.7-1.7-1.7H67c-.9 0-1.7.7-1.7 1.7v17c.1 1 .8 1.7 1.7 1.7"
        class="st0" clip-path="url(#clipPath2111)"
        transform="translate(-20.887 -244.9)"/>
  <path id="path1888"
        d="M93.7 314h19c.9 0 1.7-.7 1.7-1.7v-17c0-.9-.7-1.7-1.7-1.7h-19c-.9 0-1.7.7-1.7 1.7v17c0 1 .7 1.7 1.7 1.7"
        class="st0" clip-path="url(#clipPath2107)"
        transform="translate(-20.887 -244.9)"/>
  <path id="path1890"
        d="M120 314h19c.9 0 1.7-.7 1.7-1.7v-17c0-.9-.7-1.7-1.7-1.7h-19c-.9 0-1.7.7-1.7 1.7v17c0 1 .8 1.7 1.7 1.7"
        class="st0" clip-path="url(#clipPath2103)"
        transform="translate(-20.887 -244.9)"/>
  <path id="path1892"
        d="M67 289.7h19c.9 0 1.7-.8 1.7-1.7v-17c0-.9-.7-1.7-1.7-1.7H67c-.9 0-1.7.7-1.7 1.7v17c.1.9.8 1.7 1.7 1.7"
        class="st0" clip-path="url(#clipPath2099)"
        transform="translate(-20.887 -244.9)"/>
  <path id="path1894"
        d="M93.7 289.7h19c.9 0 1.7-.8 1.7-1.7v-17c0-.9-.7-1.7-1.7-1.7h-19c-.9 0-1.7.7-1.7 1.7v17c0 .9.7 1.7 1.7 1.7"
        class="st0" clip-path="url(#clipPath2095)"
        transform="translate(-20.887 -244.9)"/>
  <path id="path1896"
        d="M120 289.7h19c.9 0 1.7-.8 1.7-1.7v-17c0-.9-.8-1.7-1.7-1.7h-19c-.9 0-1.7.7-1.7 1.7v17c0 .9.8 1.7 1.7 1.7"
        class="st0" clip-path="url(#clipPath2091)"
        transform="translate(-20.887 -244.9)"/>
  <path id="path1898"
        d="M120 265.3h19c.9 0 1.7-.7 1.7-1.7v-17c0-.9-.8-1.7-1.7-1.7h-19c-.9 0-1.7.7-1.7 1.7v17c0 .9.8 1.7 1.7 1.7"
        class="st0" clip-path="url(#clipPath2087)"
        transform="translate(-20.887 -244.9)"/>
  <path id="path1900"
        d="M146.5 314h19c.9 0 1.7-.7 1.7-1.7v-17c0-.9-.7-1.7-1.7-1.7h-19c-.9 0-1.7.7-1.7 1.7v17c.1 1 .8 1.7 1.7 1.7"
        class="st0" clip-path="url(#clipPath2083)"
        transform="translate(-20.887 -244.9)"/>
</svg>
