<svg xmlns="http://www.w3.org/2000/svg" width="16.068" height="16" fill="none"
     viewBox="0 0 204.631 203.765">
  <path fill="#fff"
        d="M204.58 106.744a40.271 40.271 0 0 0-26.63-38 57.13 57.13 0 0 0 1.07-11 57.768 57.768 0 0 0-104.63-33.76 30.69 30.69 0 0 0-47.55 34.92A40.8 40.8 0 0 0 0 96.984a40.291 40.291 0 0 0 26.79 38.12 57.66 57.66 0 0 0 56.61 68.66 57.422 57.422 0 0 0 46.8-24.08 30.63 30.63 0 0 0 47.59-34.82 40.79 40.79 0 0 0 26.84-38.12"/>
  <path fill="#fec514"
        d="m80.43 87.744 44.77 20.41 45.16-39.57a50.49 50.49 0 0 0-91.15-38.47l-7.52 39z"/>
  <path fill="#00bfb3"
        d="M34.1 135.154a50.62 50.62 0 0 0 91.481 38.53l7.45-38.84-10-19-44.89-20.5z"/>
  <path fill="#f04e98"
        d="m33.79 57.684 30.7 7.24 6.72-34.88a24.25 24.25 0 0 0-37.42 27.64z"/>
  <path fill="#1ba9f5"
        d="M31.15 64.984a33.84 33.84 0 0 0-1.47 63.74l43-38.91-7.89-16.83z"/>
  <path fill="#93c90e"
        d="M133.44 173.684a24.097 24.097 0 0 0 25.378 2.509 24.092 24.092 0 0 0 13.412-21.689 24.307 24.307 0 0 0-1.46-8.41l-30.65-7.17z"/>
  <path fill="#07c"
        d="m139.68 130.894 33.75 7.89a34.15 34.15 0 0 0 23.24-32.13 33.778 33.778 0 0 0-21.82-31.56l-44.13 38.67Z"/>
</svg>
