<svg xmlns="http://www.w3.org/2000/svg" xml:space="preserve" width="16"
     height="16"><path d="M8 13.3c2.9 0 5.2-2.3 5.2-5.2 0-2.9-2.3-5.2-5.2-5.2-2.9 0-5.2 2.3-5.2 5.2 0 2.9 2.3 5.2 5.2 5.2ZM8 16c4.4 0 8-3.6 8-8s-3.6-8-8-8-8 3.6-8 8 3.6 8 8 8z" style="fill-rule:evenodd;clip-rule:evenodd;fill:#f44040"/>
  <path
    d="M8.4 4.5c0-.2.2-.2.3 0l1.5 3c0 .1.1.1.2.1h1.2c.3 0 .5.2.5.5s-.2.5-.5.5H9.8c-.1 0-.1 0-.2-.1L8.8 7l-1.3 4.6c0 .2-.2.2-.3 0l-1.5-3c0-.1-.1-.1-.2-.1H4.4c-.3 0-.5-.2-.5-.5s.2-.5.5-.5h1.8c.1 0 .1 0 .2.1l.8 1.5z"
    style="fill-rule:evenodd;clip-rule:evenodd;fill:#697586"/>
</svg>
