<svg xmlns:xlink="http://www.w3.org/1999/xlink"
     xmlns="http://www.w3.org/2000/svg" width="16" height="16"
     viewBox="0 0 500 500">
  <defs>
    <linearGradient id="a" x1=".5" x2=".5" y1=".091" y2=".937">
      <stop offset="0%" stop-color="#6CCCF7"/>
      <stop offset="100%" stop-color="#41BDF5"/>
    </linearGradient>
    <linearGradient id="b" x1=".5" x2=".5" y1=".418" y2="1">
      <stop offset="0%" stop-color="#FFF"/>
      <stop offset="100%" stop-color="#D9D9D9"/>
    </linearGradient>
    <linearGradient xlink:href="#a" id="f" x1="250" x2="250" y1="45.699"
                    y2="468.431" gradientUnits="userSpaceOnUse"/>
    <linearGradient xlink:href="#a" id="e" x1="250" x2="250" y1="45.699"
                    y2="468.431" gradientUnits="userSpaceOnUse"/>
    <linearGradient xlink:href="#b" id="j" x1="186.38" x2="186.38" y1="155.631"
                    y2="372.76" gradientTransform="scale(1.06503 .93894)"
                    gradientUnits="userSpaceOnUse"/>
    <linearGradient xlink:href="#b" id="i" x1="186.383" x2="186.383"
                    y1="155.629" y2="372.754"
                    gradientTransform="scale(1.06501 .93896)"
                    gradientUnits="userSpaceOnUse"/>
    <rect id="c" width="500" height="500" x="0" y="0" rx="36"/>
    <path id="g"
          d="M44.153 342.222V208.983H9.34a9.333 9.333 0 0 1-6.638-15.894L190.16 3.444c4.53-4.582 11.917-4.625 16.5-.096l.075.076 97.89 98.556V83.757a7.778 7.778 0 0 1 7.778-7.778h32.532a7.778 7.778 0 0 1 7.778 7.778v66.924l41.611 42.434a9.333 9.333 0 0 1-6.664 15.868h-34.947v133.24a7.778 7.778 0 0 1-7.778 7.777H51.93a7.778 7.778 0 0 1-7.777-7.778zM251.067 179.45a14.92 14.92 0 0 0 1.464-6.467c0-8.285-6.728-15-15.027-15-8.3 0-15.028 6.715-15.028 15s6.728 15 15.028 15c2.32 0 4.517-.524 6.479-1.461l21.572 21.533v20.859l-27.05 27V236.13c5.837-2.059 10.019-7.615 10.019-14.147 0-8.284-6.728-15-15.028-15-8.299 0-15.027 6.716-15.027 15 0 6.532 4.182 12.088 10.018 14.147v29.784l-25.045 25V144.052l20.57-20.533a14.99 14.99 0 0 0 6.479 1.462c8.3 0 15.027-6.716 15.027-15 0-8.285-6.728-15.001-15.027-15.001-8.3 0-15.027 6.716-15.027 15 0 2.316.525 4.51 1.464 6.467l-18.495 18.463-18.496-18.463a14.92 14.92 0 0 0 1.465-6.467c0-8.284-6.728-15-15.027-15-8.3 0-15.028 6.716-15.028 15 0 8.285 6.728 15 15.028 15 2.32 0 4.517-.524 6.478-1.461l20.57 20.533v104.861l-36.065-36v-28.784c5.837-2.06 10.018-7.616 10.018-14.147 0-8.285-6.728-15-15.027-15-8.3 0-15.027 6.715-15.027 15 0 6.531 4.181 12.088 10.018 14.147v18.783l-28.051-28.001v-27.783c5.837-2.06 10.018-7.616 10.018-14.147 0-8.285-6.728-15-15.027-15-8.3 0-15.027 6.715-15.027 15 0 6.531 4.181 12.087 10.018 14.147v31.925l30.985 30.93h-17.815c-2.063-5.826-7.629-10-14.172-10-8.3 0-15.027 6.716-15.027 15 0 8.285 6.728 15 15.027 15 6.543 0 12.11-4.173 14.172-10h27.833l43.15 43.073v74.86l-23.042-23v-28.784c5.836-2.06 10.018-7.616 10.018-14.147 0-8.285-6.728-15-15.027-15-8.3 0-15.028 6.715-15.028 15 0 6.531 4.182 12.088 10.019 14.147v18.783l-33.523-33.463a14.92 14.92 0 0 0 1.464-6.467c0-8.285-6.728-15-15.027-15-8.3 0-15.027 6.715-15.027 15 0 8.284 6.728 15 15.027 15 2.32 0 4.517-.525 6.479-1.462l33.523 33.463h-17.815c-2.063-5.826-7.63-10-14.172-10-8.3 0-15.028 6.716-15.028 15 0 8.285 6.728 15 15.028 15 6.543 0 12.109-4.173 14.172-10h27.833l28.05 28.001h14.169l29.052-29h26.832c2.063 5.826 7.629 10 14.172 10 8.3 0 15.027-6.716 15.027-15 0-8.285-6.728-15.001-15.027-15.001-6.543 0-12.11 4.174-14.172 10H230.42l-26.978 26.93v-32.859l32.13-32.072h51.876c2.063 5.826 7.63 10 14.172 10 8.3 0 15.027-6.716 15.027-15 0-8.285-6.727-15-15.027-15-6.543 0-12.11 4.174-14.172 10h-41.859l29.984-29.93v-25l21.572-21.534a14.99 14.99 0 0 0 6.479 1.461c8.3 0 15.027-6.715 15.027-15s-6.728-15-15.027-15c-8.3 0-15.027 6.715-15.027 15 0 2.316.525 4.509 1.464 6.467l-14.488 14.463v-45.784c5.836-2.06 10.018-7.616 10.018-14.147 0-8.285-6.728-15-15.027-15-8.3 0-15.028 6.715-15.028 15 0 6.531 4.182 12.087 10.019 14.147v45.784zM121.293 322.986a6.006 6.006 0 0 1-6.011-6c0-3.313 2.69-6 6.01-6s6.012 2.687 6.012 6c0 3.314-2.692 6-6.011 6zm44.08-45a6.006 6.006 0 0 1-6.011-6.001c0-3.314 2.691-6 6.01-6 3.32 0 6.012 2.686 6.012 6s-2.692 6-6.011 6zm-52.095-7.001a6.006 6.006 0 0 1-6.01-6c0-3.314 2.69-6 6.01-6s6.011 2.686 6.011 6-2.691 6-6.01 6zm-5.009-50.002a6.006 6.006 0 0 1-6.01-6c0-3.314 2.69-6 6.01-6s6.01 2.686 6.01 6-2.69 6-6.01 6zm125.227 7a6.006 6.006 0 0 1-6.01-6c0-3.313 2.69-6 6.01-6s6.011 2.687 6.011 6c0 3.314-2.69 6-6.01 6zm68.124 46.002a6.006 6.006 0 0 1-6.01-6c0-3.314 2.69-6 6.01-6s6.011 2.686 6.011 6-2.691 6-6.01 6zm-26.047 48.001a6.006 6.006 0 0 1-6.011-6c0-3.314 2.691-6 6.01-6 3.32 0 6.012 2.686 6.012 6s-2.691 6-6.011 6zm28.05-143.004a6.006 6.006 0 0 1-6.01-6c0-3.314 2.691-6 6.01-6 3.32 0 6.012 2.686 6.012 6s-2.691 6-6.011 6zm-33.06-39.001a6.006 6.006 0 0 1-6.01-6c0-3.314 2.691-6 6.01-6 3.32 0 6.012 2.686 6.012 6s-2.691 6-6.011 6zm-40.072-24a6.006 6.006 0 0 1-6.01-6c0-3.315 2.69-6.001 6.01-6.001s6.01 2.686 6.01 6-2.69 6-6.01 6zm-64.116 0a6.006 6.006 0 0 1-6.011-6c0-3.315 2.69-6.001 6.01-6.001s6.011 2.686 6.011 6-2.69 6-6.01 6zm-52.095 23a6.006 6.006 0 0 1-6.011-6c0-3.314 2.691-6 6.011-6 3.32 0 6.01 2.686 6.01 6s-2.69 6-6.01 6zm38.07 37.001a6.006 6.006 0 0 1-6.012-6c0-3.314 2.691-6 6.011-6 3.32 0 6.011 2.686 6.011 6s-2.691 6-6.01 6zm85.154 3a6.006 6.006 0 0 1-6.011-6c0-3.314 2.691-6 6.01-6 3.32 0 6.012 2.686 6.012 6s-2.692 6-6.011 6z"/>
  </defs>
  <g fill="none" fill-rule="evenodd">
    <mask id="d" fill="#fff">
      <use xlink:href="#c"/>
    </mask>
    <g mask="url(#d)">
      <g style="fill:url(#e)">
        <path fill="url(#a)" d="M0 0h500v500H0z" style="fill:url(#f)"/>
      </g>
      <path fill="#fff" fill-opacity=".25"
            d="M500 252.5V46.15c0-16.047-1.67-21.867-4.808-27.733-3.138-5.867-7.742-10.471-13.609-13.609C475.717 1.671 469.897 0 453.85 0H46.15C30.103 0 24.283 1.67 18.417 4.808 12.55 7.946 7.946 12.55 4.808 18.417 1.671 24.283 0 30.103 0 46.15V252.5 51.15c0-16.047 1.67-21.867 4.808-27.733C7.946 17.55 12.55 12.946 18.417 9.808 24.283 6.671 30.103 5 46.15 5h407.7c16.047 0 21.867 1.67 27.733 4.808 5.867 3.138 10.471 7.742 13.609 13.609C498.329 29.283 500 35.103 500 51.15Z"/>
      <path fill="#000" fill-opacity=".15"
            d="M500 247.5v206.35c0 16.047-1.67 21.867-4.808 27.733-3.138 5.867-7.742 10.471-13.609 13.609-5.866 3.137-11.686 4.808-27.733 4.808H46.15c-16.047 0-21.867-1.67-27.733-4.808-5.867-3.138-10.471-7.742-13.609-13.609C1.671 475.717 0 469.897 0 453.85V247.5v201.35c0 16.047 1.67 21.867 4.808 27.733 3.138 5.867 7.742 10.471 13.609 13.609C24.283 493.329 30.103 495 46.15 495h407.7c16.047 0 21.867-1.67 27.733-4.808 5.867-3.138 10.471-7.742 13.609-13.609 3.137-5.866 4.808-11.686 4.808-27.733Z"/>
    </g>
    <g transform="translate(52 70)">
      <mask id="h" fill="#fff">
        <use xlink:href="#g"/>
      </mask>
      <g fill="url(#b)" mask="url(#h)" style="fill:url(#i)">
        <path d="M0 0h397v350H0z" style="fill:url(#j)"/>
      </g>
    </g>
  </g>
</svg>
