<?xml version="1.0" encoding="utf-8"?>
<!-- Uploaded to: SVG Repo, www.svgrepo.com, Generator: SVG Repo Mixer Tools -->
<svg width="800px" height="800px" viewBox="0 0 1024 1024" class="icon"  version="1.1" xmlns="http://www.w3.org/2000/svg"><path d="M510.008543 911.350089c-1.626954 0-3.955269-0.414674-5.710208-2.456301-2.966196-3.443326-1.594189-7.365831-1.117059-8.515654l2.329339-3.38087c55.281616-47.752988 87.21148-120.004479 87.21148-197.870958 0-142.941559-116.241701-259.215-259.150495-259.215-92.666741 0-159.015534 25.041163-208.810149 78.791047a8.068216 8.068216 0 0 1-5.968228 2.648792 8.326235 8.326235 0 0 1-5.611915-2.201354c-1.946406-1.849137-2.329339-4.370966-2.266882-6.19041l0.065528-2.805446-0.320476-1.018766C111.904523 289.793335 290.924728 111.730462 510.805126 111.730462c220.648311 0 400.144624 179.306894 400.144624 399.700258 0 218.126482-177.709633 397.306414-396.156591 399.442238l-4.784616 0.477131z" fill="#FFFFFF" /><path d="M315.197978 921.495768c-67.688035 0-123.737565-20.415249-162.141456-59.045418-33.655111-34.004256-52.250916-80.704689-52.250916-131.426945 0-79.937799 52.505863-198.889724 197.23103-198.889724 131.012271 0 166.64348 75.505399 175.861519 107.976899 11.547379 40.354392 5.36004 87.277009-16.554178 125.684995l-27.530228 48.167661 39.652007 38.82266c1.306478 1.273713 2.201353 3.093158 2.551522 5.230006 0.447438 2.776777-0.094197 5.073352-1.721151 7.336139-33.175932 46.063577-123.197978 56.143728-155.098149 56.143727z" fill="#F4CE73" /><path d="M927.282768 511.43072c0-229.421985-186.80071-416.033276-416.477642-416.033277-229.611404 0-416.477643 186.611292-416.477643 416.033277 0 0.381909 0.19249 0.702385 0.254948 1.084294-0.189419 6.827267 2.168589 13.650439 7.529652 18.62857 9.953189 9.185275 25.455837 8.613947 34.641113-1.339242 46.44651-50.146832 108.970067-73.561041 196.819428-73.561041 133.912938 0 242.817476 108.970067 242.817476 242.883005 0 73.048075-29.794039 140.801638-81.916969 185.843377-1.659718 1.466204-2.870974 3.318412-4.017726 5.233078-0.702385 1.018766-1.597261 1.976099-2.168589 3.125922-0.065529 0.189419-0.065529 0.447438-0.126962 0.636857-3.57336 8.359-2.554594 18.24666 3.762779 25.582799 5.869935 6.827267 14.737805 9.250804 23.0323 7.656614 227.758171-2.234118 412.327835-187.760091 412.327835-415.774233z" fill="#27323A" /><path d="M877.583375 497.267314H745.202169c-1.276785-67.436159-11.35796-130.34265-28.647287-185.144064h102.397747c34.961588 53.71712 56.013694 117.070024 58.630746 185.144064zM745.074184 529.932328h132.318748c-3.380869 66.730702-24.437071 128.87235-58.950198 181.633161h-102.1428c17.03438-53.782648 27.115555-115.412354 28.77425-181.633161zM795.345929 279.457213h-90.21044c-17.544275-44.913754-40.383061-82.553826-66.669269-111.775513 61.756667 22.969843 115.858768 61.69421 156.879709 111.775513zM527.138145 145.224823c11.103012 0.447438 22.009439 1.404771 32.857503 2.809541 43.957445 20.350745 82.298879 67.116707 109.541396 131.423873H527.138145V145.224823zM386.397939 166.469419c-26.668117 29.284144-49.888812 67.243669-67.819092 112.987794h-92.252068c41.726399-50.973107 96.975251-90.21044 160.07116-112.987794zM285.150015 410.05481c-53.527701 5.677444-98.951349 21.180092-137.293807 46.635929 7.972995-52.632825 26.922041-101.695362 54.801414-144.568513h104.501832c-9.568208 30.241477-16.969875 63.033452-22.009439 97.932584zM494.473131 455.861392c-46.126034-30.623386-101.440415-48.615099-160.900507-48.6151-5.167549 0-10.080151 0.447438-15.120739 0.5744 5.294511-34.259203 13.079111-66.414322 23.032301-95.698466h152.988945v143.739166zM354.114835 279.457213c27.624426-64.754603 66.224903-111.456061 109.672453-131.744349 10.142608-1.276785 20.349721-2.041627 30.685843-2.489065v134.233414H354.114835zM527.138145 481.317228V312.122226H681.849265c18.312189 54.103124 29.284144 117.263538 30.688915 185.144064h-168.685108a281.686211 281.686211 0 0 0-16.714927-15.949062zM570.905147 529.932328h141.504023c-1.78668 66.60374-12.758635 128.552898-30.815876 181.633161h-56.843042c0.19249-4.144688 0.636857-8.227942 0.636857-12.439183 0-63.098981-20.288288-121.40925-54.481962-169.193978zM621.751292 744.229478h47.465276c-24.306014 56.974099-57.225975 100.548611-95.058538 123.643368 24.754475-36.365335 41.020942-78.5361 47.593262-123.643368zM638.46622 855.176668c26.158222-28.963668 48.80759-66.414322 66.286336-110.946166h89.89406c-40.896028 49.699394-94.806662 88.106356-156.180396 110.946166z" fill="#79CCBF" /><path d="M471.888269 846.373302c-7.274705-5.294511-17.481818-3.635817-22.777353 3.701346-24.687923 34.259203-100.866015 45.296687-133.912938 45.296686-60.606844 0-110.243781-17.736765-143.61118-51.359111-28.771178-29.029197-44.655735-69.158334-44.655734-112.987794 0-83.703649 59.968963-172.764266 171.105572-172.764266 80.832675 0 134.360376 31.642152 150.757899 89.060617 15.502648 54.230086-7.401667 118.475819-52.12293 146.289664-20.225831 12.569216-31.136353 13.079111-36.045883 12.249764 0.509895-1.21228 1.273713-2.168589 1.594189-3.507831l36.365335-165.748605c2.870974-13.26853-5.488025-26.285184-18.694098-29.218615-13.206073-2.870974-26.285184 5.48393-29.157182 18.691026l-4.083255 18.501608c-12.886621-20.798183-31.580719-35.790935-54.866943-40.445518-53.14272-10.463084-105.520598 35.598445-119.239637 104.883741-7.143648 36.30083-1.655623 70.305086 15.440191 95.953413 13.399587 19.967812 33.367399 33.428832 56.271713 37.959525 29.855472 5.869935 58.437231-4.465164 80.44667-25.582799 0.384981 0.320476 0.957333 0.381909 1.404771 0.636857 2.936503 5.742973 7.464124 10.975027 13.589006 14.676372 12.952149 7.846033 36.365335 12.249764 74.263426-11.292431 56.395604-35.154079 85.552786-115.542387 66.221832-183.041004C470.549027 604.446606 433.418849 525.594125 298.035612 525.594125c-132.381205 0-203.770586 105.841074-203.770586 205.42928 0 52.508935 19.265426 100.803558 54.164558 136.020094 39.619243 39.87419 97.227127 60.991825 166.76737 60.991825 32.791975 0 125.619467-10.590046 160.391636-58.888764 5.295535-7.336138 3.635817-17.544275-3.700321-22.773258z" fill="#27323A" /><path d="M314.113683 736.958869c-7.719071 38.916857-33.10938 63.2884-60.351896 57.92836-10.208137-2.041627-18.886589-7.974019-25.073928-17.223799-9.825204-14.676372-12.697202-35.663974-8.038524-59.142688 7.972995-40.256099 36.748268-71.199962 61.628682-66.28736 20.543235 4.020798 34.069784 30.433967 34.069784 62.141648 0 7.336138-0.702385 14.927224-2.234118 22.583839z" fill="#FFFFFF" /></svg>