<svg xmlns:xlink="http://www.w3.org/1999/xlink"
     xmlns="http://www.w3.org/2000/svg" width="16.944" height="16"
     version="1.0" viewBox="0 0 90.627 85.578">
  <defs>
    <radialGradient xlink:href="#a" id="b" cx="61.298" cy="60.911" r="44.688"
                    fx="61.298" fy="60.911"
                    gradientTransform="matrix(1 0 0 .9451 -9.61 -9.47)"
                    gradientUnits="userSpaceOnUse"/>
    <linearGradient id="a">
      <stop offset="0" style="stop-color:#575757;stop-opacity:1"/>
      <stop offset="1" style="stop-color:#2f2f2f;stop-opacity:1"/>
    </linearGradient>
  </defs>
  <path
    d="M95.846 5.862s-17.245 8.242-31.284 10.062c-14.039 1.82-40.812 3.64-46.127 2.355-5.315-1.284-9.13-2.784-9.13-2.784l1.106 3.747-3.412 2.996.605 1.07 1.403.105 4.31.535.605 1.927 2.405.217 1.205 4.065s5.112.428 6.616.428c1.504 0 4.513-.211 4.513-.211l.1 1.603 1.105.212v1.821l-2.41 2.143.605.106v.747s-5.416.432-7.622.11c-2.207-.32-2.609-.322-2.609-.322l-.198.212-.1.963h.501l.199 4.176 11.133-.428-.803 14.45-.1 1.815-9.427-.534-.1-3.854h2.104l.203-1.498 1.904-.428.303-.424-7.122-1.715-5.415 1.604.902.751h.903l.1 1.287 1.904.105v3.748l-2.103.535.401.852.501.323v2.89h1.305v13.375l-2.108.323.302 3.853 1.3.217-.199 8.776 5.718.106-1.205-8.67 8.625-.212-.6 4.706-.804 3.319 8.724.106.1-8.56 6.015-.534-.298 5.457-.203 3.208h5.118l-.203-8.776.704.11.198-4.175h-.803l-.298-1.715-.5-4.923.198-5.669h1.1v-3.424l-1.403.106.203-4.04 1.63-.162.076-1.31.927-.137.95-.721-5.714-1.175-5.666 1.255.553.908.6-.05.7-.025.127 1.654 1.579-.076.028 3.581-6.796-.156.227-3.828.222-3.48V46.29l.203-4.817 13.61-.696 16.195-.933.151 3.077-.576 7.384-.25 6.874-5.964-.106-.029-4.816 2.207-.081.1-1.362.902-.136-.047-.267.902-.05.501-.671-6.743-1.58-6.72 1.443.477.833.752-.056v.378h.926v1.523l1.98.026-.024 4.226H50.5l-.029.964.704.08-.075 3.667 1.479.08-.175 14.531-1.956.399.023.696h.68v3.722h1.125l-.297 5.084-.378 4.438 7.121.187-.227-3.854-.524-3.207-.104-2.784 6.044-.106-.175 4.307-.028 4.55 3.412.267 4.636-.187 1.455-.429-.803-2.436-.199-3.828-.378-2.728 5.766-.212-.25 3.344-.025 5.245 2.307.212 2.282-.05 1.101-.349-.652-4.978-.222-3.747.978-.106.024-3.344.274-.055-.047-.722h-1.13l-.227-2.46-.099-10.678.85-.025v-3.506l.355.056v-.696l-1.257-.111.028-4.065 2.103-.187-.123-1.367.927-.08-.052-.268 1.228-.615-6.242-1.256-6.342 1.286.402.747.978-.081.052.323h.827l.047 1.604 2.056-.026.175 3.934-7.268-.055-.851-5.911-.68-3.132-.549-5.619.326-3.288 14.49-1.1.046-4.897.728-.187-.047-.746-.553-.323s-7.923 1.175-10.43 1.443l-1.228.13-.076-.907-2.996-1.569.038-1.825 1.03-.03.076-2.512s6.14-.403 8.42-.939c2.282-.535 5.516-1.069 5.516-1.069l1.53-4.146 3.035-.882.25-.696 6.867-1.902.78-.64-2.61-5.7.251-1.286 1.328-.696.955-2.915zm-32.99 21.727-.038 2.073 1.555.066-.1 1.967-3.047 1.997-.19.575 1.23.01-.01.484-9.314.454.061-1.377.425-.685.029-.44.01-.947.264-.63.1-.51v-.363l.4-1.604zm-19.479 1.766-.227 1.392.728.857-.047 1.498.675 1.044-.174 1.23.5.722-9.503.373-.023-.318 1.1-.136.053-.403-2.406-1.306-.127-2.089 1.153-.055.099-2.25zm14.064 32.107 5.765.373-.199 7.763.752 6.365-6.115-.212zm-38.61.323 9.23.48-.803 5.35v4.5l.652 2.511-9.026.429zm59.067.05V75.11l-5.865.429-.203-7.01-.652-6.532Zm-44.421.298 6.819.025.07 12.307-6.365.11-.326-3.989-.023-3.96z"
    style="fill:url(#b);fill-opacity:1;fill-rule:evenodd;stroke:#323232;stroke-width:1;stroke-linecap:butt;stroke-linejoin:miter;stroke-miterlimit:4;stroke-dasharray:none;stroke-opacity:1"
    transform="translate(-6.364 -5.267)"/>
</svg>
