<?xml version="1.0" encoding="iso-8859-1"?>
<!-- Uploaded to: SVG Repo, www.svgrepo.com, Generator: SVG Repo Mixer Tools -->
<svg version="1.1" id="Layer_1" xmlns="http://www.w3.org/2000/svg" xmlns:xlink="http://www.w3.org/1999/xlink" 
	 viewBox="0 0 511.992 511.992" xml:space="preserve">
<path style="fill:#DA4453;" d="M415.993,117.339H95.998c-5.891,0-10.655,4.766-10.655,10.672v149.334
	c0,5.875,4.765,10.656,10.655,10.656h319.995c5.906,0,10.672-4.781,10.672-10.656V128.011
	C426.665,122.104,421.899,117.339,415.993,117.339z"/>
<rect x="245.336" y="117.337" style="fill:#ED5564;" width="21.328" height="160.01"/>
<rect x="85.346" y="266.667" style="fill:#656D78;" width="341.32" height="106.68"/>
<rect x="95.996" y="330.657" style="fill:#434A54;" width="320" height="42.687"/>
<g>
	<path style="fill:#ED5564;" d="M53.343,181.338C23.938,181.338,0,205.26,0,234.665c0,21.484,12.812,40.555,31.999,48.898v111.092
		h74.671v-159.99C106.67,205.26,82.749,181.338,53.343,181.338z"/>
	<path style="fill:#ED5564;" d="M458.664,181.338c-29.405,0-53.327,23.922-53.327,53.327v159.99h74.655V283.563
		c19.203-8.344,32-27.414,32-48.898C511.992,205.26,488.07,181.338,458.664,181.338z"/>
</g>
<g>
	<path style="fill:#DA4453;" d="M63.999,234.665c0,5.891-4.766,10.672-10.656,10.672s-10.672-4.781-10.672-10.672
		c0-5.89,4.781-10.655,10.672-10.655S63.999,228.775,63.999,234.665z"/>
	<path style="fill:#DA4453;" d="M469.336,234.665c0,5.891-4.781,10.672-10.672,10.672s-10.672-4.781-10.672-10.672
		c0-5.89,4.781-10.655,10.672-10.655S469.336,228.775,469.336,234.665z"/>
</g>
</svg>