<?xml version="1.0" encoding="iso-8859-1"?>
<!-- Uploaded to: SVG Repo, www.svgrepo.com, Generator: SVG Repo Mixer Tools -->
<svg height="800px" width="800px" version="1.1" id="Layer_1" xmlns="http://www.w3.org/2000/svg" xmlns:xlink="http://www.w3.org/1999/xlink" 
	 viewBox="0 0 512 512" xml:space="preserve">
<polygon style="fill:#FDDF7F;" points="434.133,213.197 297.262,213.197 398.274,10.199 220.141,10.199 99.844,251.952 
	202.193,251.952 77.866,501.801 "/>
<g>
	<path style="fill:#00537B;" d="M77.866,512c-2.258,0-4.515-0.747-6.38-2.242c-3.743-3.001-4.888-8.205-2.751-12.501
		l116.991-235.106H99.844c-3.531,0-6.811-1.827-8.67-4.828c-1.859-3.003-2.034-6.753-0.46-9.915L211.011,5.655
		C212.735,2.191,216.272,0,220.141,0h178.133c3.532,0,6.812,1.827,8.671,4.828c1.858,3.003,2.033,6.753,0.46,9.915l-93.678,188.255
		h120.405c4.319,0,8.172,2.721,9.614,6.794c1.443,4.073,0.163,8.611-3.193,11.33L84.286,509.727
		C82.415,511.241,80.141,512,77.866,512z M116.31,241.753h85.882c3.531,0,6.811,1.827,8.67,4.828
		c1.859,3.003,2.034,6.753,0.46,9.915L107.893,464.35l297.445-240.954H297.262c-3.531,0-6.812-1.827-8.671-4.828
		c-1.858-3.003-2.033-6.753-0.46-9.915l93.677-188.255H226.459L116.31,241.753z"/>
	<path style="fill:#00537B;" d="M335.56,261.658c-2.97,0-5.916-1.292-7.931-3.78c-3.546-4.377-2.871-10.799,1.505-14.345
		l7.139-5.783c4.379-3.545,10.799-2.872,14.345,1.505c3.546,4.377,2.871,10.799-1.505,14.345l-7.139,5.783
		C340.084,260.913,337.815,261.658,335.56,261.658z"/>
	<path style="fill:#00537B;" d="M249.374,331.474c-2.971,0-5.916-1.291-7.931-3.78c-3.545-4.376-2.871-10.799,1.505-14.345
		l61.706-49.988c4.378-3.545,10.798-2.872,14.345,1.505c3.546,4.376,2.871,10.799-1.505,14.345L255.787,329.2
		C253.9,330.731,251.629,331.474,249.374,331.474z"/>
</g>
</svg>