<svg xmlns="http://www.w3.org/2000/svg" width="16" height="16"
     style="display:block" viewBox="0 0 512 512">
  <path d="M0 0h512v512H0V0Z" style="fill:none"/>
  <path
    d="m304 21 2.988.65C342.625 29.67 375.465 45.21 404 68l1.64 1.29C421.146 81.547 435.505 95.904 447 112l1.356 1.876C469.749 143.63 483.73 176.025 491 212l.54 2.524c5.888 28.594 4.673 62.067-1.54 90.476l-.65 2.988C481.33 343.625 465.79 376.465 443 405l-1.29 1.64c-6.042 7.643-12.744 14.616-19.585 21.548l-2.489 2.542-2.378 2.375-2.12 2.13c-2.285 1.886-4.346 2.82-7.138 3.765-2.882-17.678-2.882-17.678-3.938-26.5-1.431-11.869-3.286-23.679-5.062-35.5-.71-4.729-1.42-9.458-2.125-14.188l-.51-3.423c-.906-6.122-1.755-12.244-2.49-18.389-.503-4.2-1.08-8.345-1.875-12.5-.94-4.917-1.578-9.845-2.18-14.813-2.251-18.593-2.251-18.593-5.363-37.054-.67-3.856-1.106-7.735-1.569-11.62-.82-6.731-1.82-13.433-2.825-20.138-2.633-17.593-5.07-35.197-7.063-52.875-3.473 1.016-4.104 2.188-5.895 5.422-.65 1.437-1.29 2.88-1.917 4.328a2752.42 2752.42 0 0 1-2.11 4.66l-1.057 2.352c-1.452 3.183-3.009 6.301-4.584 9.425l-1.73 3.438c-1.127 2.23-2.255 4.458-3.383 6.687a789.942 789.942 0 0 0-9.762 20.125c-2.758 5.887-5.63 11.672-8.75 17.375A146.801 146.801 0 0 0 327 280a143.413 143.413 0 0 1-6.688 13.938c-6.36 11.631-11.9 23.695-17.476 35.718a416.331 416.331 0 0 1-11.474 22.885c-3.174 5.935-5.88 12.026-8.545 18.203-2.16 4.949-4.634 9.495-7.528 14.06-1.745 2.972-2.88 6.07-4.094 9.286-1.557 3.791-3.358 7.435-5.195 11.098l-1.007 2.016c-2.198 4.348-4.545 8.583-6.993 12.796h-2c-5.254-9.792-10.37-19.606-15.018-29.7-2.763-5.952-5.792-11.742-8.926-17.506-1.7-3.144-3.304-6.272-4.693-9.567-1.012-2.397-2.014-4.523-3.363-6.727-1.695-2.769-2.92-5.66-4.179-8.648-1.313-2.96-2.887-5.766-4.446-8.602-3.582-6.602-6.835-13.328-10.018-20.13A561.553 561.553 0 0 0 198 304c-2.937-5.808-5.741-11.668-8.5-17.563a343.616 343.616 0 0 0-9.483-18.739c-2.67-4.94-5.081-9.983-7.455-15.073-2.842-6.094-5.805-12.083-9-18-4.376-8.115-8.324-16.411-12.253-24.75-2.675-5.673-5.462-11.286-8.309-16.875h-3c-2.747 17.943-2.747 17.943-5.125 35.938-.643 5.366-1.461 10.67-2.383 15.996-.645 4.022-1.119 8.059-1.604 12.103-.823 6.714-1.822 13.399-2.826 20.088-1.242 8.285-2.45 16.571-3.562 24.875-1.267 9.468-2.668 18.914-4.085 28.362-.922 6.184-1.796 12.367-2.54 18.576-.643 5.366-1.461 10.67-2.383 15.996-.645 4.022-1.119 8.059-1.604 12.103-.967 7.884-2.17 15.733-3.352 23.588a1157.512 1157.512 0 0 0-3.497 25.133c-.723 5.502-1.767 10.84-3.039 16.242-6.962-4.794-12.873-10.515-18.813-16.5l-1.475-1.48C76.185 416.444 69.166 408.732 63 400l-1.343-1.863C40.256 368.38 26.272 335.983 19 300l-.54-2.524C12.573 268.882 13.788 235.409 20 207l.65-2.988C28.67 168.375 44.21 135.535 67 107l1.29-1.64C80.547 89.854 94.904 75.494 111 64l1.876-1.356C142.63 41.251 175.025 27.27 211 20l2.524-.54C242.118 13.573 275.591 14.788 304 21Z"
    style="fill:#26bfbf"/>
  <path
    d="M153 271c3 1 3 1 4.727 4a328.666 328.666 0 0 1 1.898 4c.705 1.463 1.412 2.925 2.121 4.387l1.113 2.302c1.854 3.755 3.844 7.436 5.828 11.123 2.94 5.495 5.69 11.016 8.208 16.72 1.892 4.226 4.012 8.338 6.105 12.468 1.022 2.041 2.043 4.083 3.063 6.125l1.527 3.05c.85 1.704 1.698 3.41 2.539 5.118 1.555 3.152 3.156 6.237 4.934 9.27 1.58 2.803 2.853 5.565 4.1 8.521 1.425 3.263 3.042 6.428 4.65 9.603l1.068 2.126c1.56 3.101 3.125 6.2 4.693 9.296a501.471 501.471 0 0 1 7.184 14.815c3.593 7.744 7.432 15.31 11.455 22.839 3.381 6.367 6.481 12.84 9.524 19.375 2.656 5.671 5.5 11.207 8.52 16.692 2.06 3.766 3.763 7.567 5.368 11.545 1.048 2.587 1.048 2.587 2.375 4.625 3.15 1.38 3.15 1.38 6 1l.516-1.723c1.4-4.46 2.96-8.402 5.394-12.425 1.724-2.928 3.187-5.979 4.692-9.024.965-1.952 1.94-3.9 2.921-5.844 3.58-7.092 7.025-14.237 10.414-21.421 3.192-6.759 6.512-13.403 10.094-19.961 3.106-5.737 5.85-11.629 8.605-17.54a270.928 270.928 0 0 1 7.614-15c2.31-4.228 4.405-8.454 6.187-12.937 2.27-5.686 5.076-10.974 7.982-16.35 2.895-5.39 5.562-10.856 8.143-16.4a324.326 324.326 0 0 1 9.408-18.648c3.251-6.005 6.13-12.177 8.973-18.383 3.663-7.91 3.663-7.91 6.057-10.344h3c1.746 9.3 3.264 18.564 4.3 27.97a197.67 197.67 0 0 0 1.7 12.093c1.135 6.512 1.916 13.06 2.716 19.62 1.922 15.67 4.122 31.292 6.482 46.9 1.185 7.884 2.244 15.768 3.127 23.691.442 3.934.987 7.827 1.675 11.726 1.079 6.168 1.787 12.367 2.492 18.586.652 5.747 1.4 11.482 2.14 17.219C385 455 385 455 385 458c-27.089 16.128-54.983 27.805-86 34l-2.34.496c-28.7 5.865-62.141 4.741-90.66-1.496l-2.988-.65C179.648 485.092 145.596 476.597 128 459c-.77-7.228.452-14.198 1.794-21.272a179.515 179.515 0 0 0 2.143-14.978c1.213-11.792 2.928-23.515 4.574-35.253a4477.75 4477.75 0 0 0 2.052-14.872l.36-2.637c.776-5.694 1.518-11.39 2.25-17.09.981-7.625 1.998-15.217 3.333-22.79.566-3.56.987-7.129 1.392-10.71 1.036-8.963 2.165-17.914 3.334-26.86.224-1.72.446-3.44.666-5.161.323-2.522.651-5.043.98-7.565l.298-2.341c.71-5.357.71-5.357 1.824-6.471Z"
    style="fill:#26bfbf"/>
</svg>
