<svg xmlns="http://www.w3.org/2000/svg" width="14.022" height="16"
     style="clip-rule:evenodd;fill-rule:evenodd;image-rendering:optimizeQuality;shape-rendering:geometricPrecision;text-rendering:geometricPrecision"
     viewBox="0 0 154.243 176">
  <path fill="#faa42e"
        d="M95.5 7.5v11a59.52 59.52 0 0 0-9 5c-.952 1.545-1.285 3.212-1 5a69.294 69.294 0 0 0-18 5c-.313-3.913.353-7.58 2-11a249.673 249.673 0 0 1 26-15z"
        style="opacity:.838" transform="translate(-18.38 -7.5)"/>
  <path fill="#c54727"
        d="M95.5 7.5a263.325 263.325 0 0 1 19 11l-8 6a88.078 88.078 0 0 0-11-6v-11z"
        style="opacity:.789" transform="translate(-18.38 -7.5)"/>
  <path fill="#f05832"
        d="M114.5 18.5a37.8 37.8 0 0 1 10 6c-.977 2.787-1.31 5.787-1 9a29.417 29.417 0 0 0-7-2v5c1.291-.237 2.291.096 3 1-1.265.98-2.599 1.98-4 3a36.877 36.877 0 0 0-1 12c-3.492.91-6.492 2.576-9 5a1102.59 1102.59 0 0 1-10-5v-11a35.167 35.167 0 0 0 10-5 36.877 36.877 0 0 0 1-12l8-6z"
        style="opacity:.899" transform="translate(-18.38 -7.5)"/>
  <path fill="#f27131"
        d="M94.5 21.5c7.718 1.361 10.384 5.694 8 13-4.454 5.247-8.954 5.247-13.5 0-.667-3-.667-6 0-9 2.167-.988 4-2.321 5.5-4z"
        style="opacity:.76" transform="translate(-18.38 -7.5)"/>
  <path fill="#fdcf29"
        d="M69.5 22.5c-1.647 3.42-2.313 7.087-2 11-10.14 4.814-18.808 11.481-26 20l-2-1a46.797 46.797 0 0 1 1-13 399.95 399.95 0 0 1 29-17z"
        style="opacity:.834" transform="translate(-18.38 -7.5)"/>
  <path fill="#ee3839"
        d="M124.5 24.5a89.323 89.323 0 0 1 19 11c-3.04 1.18-5.706 2.847-8 5l-12-7c-.31-3.213.023-6.213 1-9z"
        style="opacity:.793" transform="translate(-18.38 -7.5)"/>
  <path fill="#f9a22e"
        d="M85.5 36.5a54.796 54.796 0 0 1-9 4c-1.934-.61-3.6-1.61-5-3 4.305-2.246 8.971-3.58 14-4v3z"
        style="opacity:.704" transform="translate(-18.38 -7.5)"/>
  <path fill="#e12574"
        d="M143.5 35.5c3.492.91 6.492 2.576 9 5v12a5.728 5.728 0 0 0-3 1c-4.693-4.361-9.359-8.695-14-13 2.294-2.153 4.96-3.82 8-5z"
        style="opacity:.825" transform="translate(-18.38 -7.5)"/>
  <path fill="#f27131"
        d="m85.5 36.5 10 5v11l-28 16v-11c2.603-1.642 5.27-3.308 8-5a36.874 36.874 0 0 0 1-12 54.796 54.796 0 0 0 9-4z"
        style="opacity:.908" transform="translate(-18.38 -7.5)"/>
  <path fill="#d98a26"
        d="M71.5 37.5c1.4 1.39 3.066 2.39 5 3a36.874 36.874 0 0 1-1 12c-2.73 1.692-5.397 3.358-8 5a105.01 105.01 0 0 0-8.5-5c-.186-2.536-.686-4.869-1.5-7 4.007-3.675 8.673-6.341 14-8z"
        style="opacity:.941" transform="translate(-18.38 -7.5)"/>
  <path fill="#ee3739"
        d="M119.5 37.5c5.327 1.659 9.993 4.325 14 8v7c-3.317 1.637-6.65 3.304-10 5a37.79 37.79 0 0 0-9-5 36.877 36.877 0 0 1 1-12c1.401-1.02 2.735-2.02 4-3z"
        style="opacity:.944" transform="translate(-18.38 -7.5)"/>
  <path fill="#f1ea57"
        d="M40.5 39.5a46.797 46.797 0 0 0-1 13 2467.035 2467.035 0 0 0-10 4c-3.938-.788-6.938-2.788-9-6a145.607 145.607 0 0 1 20-11z"
        style="opacity:.882" transform="translate(-18.38 -7.5)"/>
  <path fill="#d04899"
        d="M152.5 40.5a170.84 170.84 0 0 1 19 11l-10 6a58.864 58.864 0 0 0-9-5v-12z"
        style="opacity:.886" transform="translate(-18.38 -7.5)"/>
  <path fill="#fece29"
        d="M57.5 45.5a24.939 24.939 0 0 1-.5 7 32.985 32.985 0 0 1-8.5 4h-2c2.645-4.645 6.312-8.312 11-11z"
        style="opacity:.692" transform="translate(-18.38 -7.5)"/>
  <path fill="#e02472"
        d="M133.5 45.5c4.667 2.667 8.333 6.333 11 11-.667 0-1 .333-1 1h-1a58.864 58.864 0 0 0-9-5v-7z"
        style="opacity:.67" transform="translate(-18.38 -7.5)"/>
  <path fill="#d6df42"
        d="M20.5 50.5c2.062 3.212 5.062 5.212 9 6v12a36.422 36.422 0 0 0-8.5 5 60.94 60.94 0 0 0-.5 11h-2c-.167-11.005 0-22.005.5-33 .383-.556.883-.89 1.5-1z"
        style="opacity:.884" transform="translate(-18.38 -7.5)"/>
  <path fill="#fae93b"
        d="m39.5 52.5 2 1a93.787 93.787 0 0 0-9 16 5.728 5.728 0 0 1-3-1v-12c3.374-1.358 6.707-2.691 10-4z"
        style="opacity:.821" transform="translate(-18.38 -7.5)"/>
  <path fill="#f9a42f"
        d="M57.5 45.5c.814 2.131 1.314 4.464 1.5 7a105.01 105.01 0 0 1 8.5 5v11a58.501 58.501 0 0 1-9 5 36.874 36.874 0 0 0-1 12c-8.092 2.123-11.092 7.456-9 16-7.978 1.751-10.978 6.751-9 15a82.227 82.227 0 0 1-11 5 32.784 32.784 0 0 0-10-4v-11a54.805 54.805 0 0 0 9-4 34.098 34.098 0 0 0 2 7l4-3a96.224 96.224 0 0 1-1-19 19.215 19.215 0 0 0 6.5-3 60.94 60.94 0 0 0 .5-11c2.639-1.656 5.305-3.322 8-5a36.874 36.874 0 0 0 1-12 32.985 32.985 0 0 0 8.5-4c.497-2.31.663-4.643.5-7z"
        style="opacity:.946" transform="translate(-18.38 -7.5)"/>
  <path fill="#c02026"
        d="M114.5 52.5a37.79 37.79 0 0 1 9 5v11a122.003 122.003 0 0 1-18-11c2.508-2.424 5.508-4.09 9-5z"
        style="opacity:.86" transform="translate(-18.38 -7.5)"/>
  <path fill="#b01b49"
        d="M133.5 52.5a58.864 58.864 0 0 1 9 5 60.93 60.93 0 0 1-.5 11 93.478 93.478 0 0 0-9.5 6 62.739 62.739 0 0 0-9-6v-11c3.35-1.696 6.683-3.363 10-5z"
        style="opacity:.968" transform="translate(-18.38 -7.5)"/>
  <path fill="#cb3192"
        d="M152.5 52.5a58.864 58.864 0 0 1 9 5v11a5.728 5.728 0 0 1-3 1c-3.012-5.36-6.012-10.694-9-16a5.728 5.728 0 0 1 3-1z"
        style="opacity:.851" transform="translate(-18.38 -7.5)"/>
  <path fill="#9c3995"
        d="M171.5 51.5c.992 7.148 1.325 14.48 1 22a80.736 80.736 0 0 1-11-5v-11l10-6z"
        style="opacity:.847" transform="translate(-18.38 -7.5)"/>
  <path fill="#fce83a"
        d="M46.5 56.5h2a36.874 36.874 0 0 1-1 12 2637.783 2637.783 0 0 0-8 5 5.728 5.728 0 0 1-3-1c2.346-6.043 5.68-11.376 10-16z"
        style="opacity:.818" transform="translate(-18.38 -7.5)"/>
  <path fill="#cb3091"
        d="M144.5 56.5c4.32 4.624 7.654 9.957 10 16l-2 1a36.41 36.41 0 0 1-8.5-5 60.93 60.93 0 0 1-.5-11c0-.667.333-1 1-1z"
        style="opacity:.801" transform="translate(-18.38 -7.5)"/>
  <path fill="#fecf29"
        d="M29.5 68.5c.891.61 1.891.943 3 1a132.719 132.719 0 0 0-5 19 36.178 36.178 0 0 1-7-4 60.94 60.94 0 0 1 .5-11 36.422 36.422 0 0 1 8.5-5z"
        style="opacity:.88" transform="translate(-18.38 -7.5)"/>
  <path fill="#b061a6"
        d="M161.5 68.5a80.736 80.736 0 0 0 11 5v11a54.327 54.327 0 0 0-9 4 133.6 133.6 0 0 0-5-19 5.728 5.728 0 0 0 3-1z"
        style="opacity:.889" transform="translate(-18.38 -7.5)"/>
  <path fill="#a31767"
        d="M142.5 57.5h1a60.93 60.93 0 0 0 .5 11 36.41 36.41 0 0 0 8.5 5v11a59.51 59.51 0 0 0-9 5l-2 12a58.53 58.53 0 0 0-9 5v-32a93.478 93.478 0 0 1 9.5-6 60.93 60.93 0 0 0 .5-11z"
        style="opacity:.951" transform="translate(-18.38 -7.5)"/>
  <path fill="#fecc29"
        d="M36.5 72.5c.891.61 1.891.943 3 1a60.94 60.94 0 0 1-.5 11 19.215 19.215 0 0 1-6.5 3 95.24 95.24 0 0 1 4-15z"
        style="opacity:.741" transform="translate(-18.38 -7.5)"/>
  <path fill="#f15833"
        d="M96.5 72.5a88.665 88.665 0 0 0-1.5 12 49.328 49.328 0 0 1-8 5 74.203 74.203 0 0 1-1.5 12c-3.583 1.28-6.583 3.28-9 6-.617-.111-1.117-.444-1.5-1a121.244 121.244 0 0 1 0-22c6.538-5.184 13.705-9.184 21.5-12z"
        style="opacity:.868" transform="translate(-18.38 -7.5)"/>
  <path fill="#ee3839"
        d="M96.5 72.5a122.003 122.003 0 0 1 18 11c-2.375 2.525-5.209 4.525-8.5 6a72.368 72.368 0 0 0-.5 12c-9.134 1.951-12.8 7.618-11 17a122.06 122.06 0 0 1-18-11c2.417-2.72 5.417-4.72 9-6a74.203 74.203 0 0 0 1.5-12 49.328 49.328 0 0 0 8-5 88.665 88.665 0 0 1 1.5-12z"
        style="opacity:.938" transform="translate(-18.38 -7.5)"/>
  <path fill="#b162a6"
        d="M154.5 72.5a249.77 249.77 0 0 1 4 15c-2.284-.475-4.284-1.475-6-3v-11l2-1z"
        style="opacity:.761" transform="translate(-18.38 -7.5)"/>
  <path fill="#e22573"
        d="M114.5 83.5c.992 7.148 1.325 14.48 1 22a32.503 32.503 0 0 1-10-4 72.368 72.368 0 0 1 .5-12c3.291-1.475 6.125-3.475 8.5-6z"
        style="opacity:.925" transform="translate(-18.38 -7.5)"/>
  <path fill="#fbe93a"
        d="M18.5 84.5h2a36.178 36.178 0 0 0 7 4v14a54.805 54.805 0 0 1-9 4v-22z"
        style="opacity:.8" transform="translate(-18.38 -7.5)"/>
  <path fill="#f6965e"
        d="M57.5 85.5v20a54.805 54.805 0 0 0-9-4c-2.092-8.544.908-13.877 9-16z"
        style="opacity:.924" transform="translate(-18.38 -7.5)"/>
  <path fill="#9b3994"
        d="M152.5 84.5c1.716 1.525 3.716 2.525 6 3v16c-1.984-.117-3.65.55-5 2a31.116 31.116 0 0 0-1 11 557.884 557.884 0 0 0-10 5 36.875 36.875 0 0 0-1 12c-2.294 2.153-4.96 3.82-8 5l-10-5v-11a104.988 104.988 0 0 1 8.5-5c.499-3.652.665-7.318.5-11a58.53 58.53 0 0 1 9-5l2-12a59.51 59.51 0 0 1 9-5z"
        style="opacity:.93" transform="translate(-18.38 -7.5)"/>
  <path fill="#6b297a"
        d="M172.5 84.5v22h-1a27.374 27.374 0 0 0-8-4v-14a54.327 54.327 0 0 1 9-4z"
        style="opacity:.782" transform="translate(-18.38 -7.5)"/>
  <path fill="#ed3e88"
        d="M105.5 101.5a32.503 32.503 0 0 0 10 4c-.531 2.124-1.865 3.624-4 4.5a101.181 101.181 0 0 1-17 8.5c-1.8-9.382 1.866-15.049 11-17z"
        style="opacity:.883" transform="translate(-18.38 -7.5)"/>
  <path fill="#f37132"
        d="M48.5 101.5a54.805 54.805 0 0 1 9 4v12l-8 4-10-5c-1.978-8.249 1.022-13.249 9-15z"
        style="opacity:.941" transform="translate(-18.38 -7.5)"/>
  <path fill="#8f509f"
        d="M163.5 102.5a27.374 27.374 0 0 1 8 4 31.116 31.116 0 0 1-1 11l-8 4c-1.984.016-2.984-.984-3-3a140.287 140.287 0 0 0 4-16z"
        style="opacity:.858" transform="translate(-18.38 -7.5)"/>
  <path fill="#90509f"
        d="M158.5 103.5a51.614 51.614 0 0 1-5 15c-.798-.457-1.131-1.124-1-2a31.116 31.116 0 0 1 1-11c1.35-1.45 3.016-2.117 5-2z"
        style="opacity:.71" transform="translate(-18.38 -7.5)"/>
  <path fill="#c57828"
        d="M18.5 117.5a32.784 32.784 0 0 1 10 4v13c-3.55 1.223-6.55 3.223-9 6-.992-7.482-1.325-15.148-1-23z"
        style="opacity:.829" transform="translate(-18.38 -7.5)"/>
  <path fill="#f05832"
        d="M57.5 117.5c3.317 1.637 6.65 3.304 10 5v11a59.572 59.572 0 0 0-9 5 13.118 13.118 0 0 0-1 7c-4.134-2.3-7.467-5.467-10-9.5 1.815-4.634 2.482-9.467 2-14.5l8-4z"
        style="opacity:.89" transform="translate(-18.38 -7.5)"/>
  <path fill="#854499"
        d="M171.5 106.5h1c.328 11.179-.005 22.179-1 33a37.779 37.779 0 0 0-9-5v-13l8-4a31.116 31.116 0 0 0 1-11z"
        style="opacity:.783" transform="translate(-18.38 -7.5)"/>
  <path fill="#f27131"
        d="M37.5 119.5c8.226.736 11.06 5.069 8.5 13a64.468 64.468 0 0 0-6.5 4c-6.995-1.687-9.495-6.02-7.5-13 2.167-.988 4-2.321 5.5-4z"
        style="opacity:.754" transform="translate(-18.38 -7.5)"/>
  <path fill="#542263"
        d="M150.5 119.5c8.226.736 11.06 5.069 8.5 13a64.501 64.501 0 0 0-6.5 4c-6.995-1.687-9.495-6.02-7.5-13 2.167-.988 4-2.321 5.5-4z"
        style="opacity:.759" transform="translate(-18.38 -7.5)"/>
  <path fill="#d31f26"
        d="M67.5 122.5c6.036 3.681 12.036 7.348 18 11a37.787 37.787 0 0 1-9 5 59.024 59.024 0 0 1-9-5v-11z"
        style="opacity:.869" transform="translate(-18.38 -7.5)"/>
  <path fill="#d14b9b"
        d="M123.5 122.5v11a59.043 59.043 0 0 1-9 5 59.562 59.562 0 0 1-9-5 122.028 122.028 0 0 1 18-11z"
        style="opacity:.858" transform="translate(-18.38 -7.5)"/>
  <path fill="#e12573"
        d="M85.5 133.5c3.317 1.637 6.65 3.304 10 5 2.451 8.626-.549 13.96-9 16l-10-4v-12a37.787 37.787 0 0 0 9-5z"
        style="opacity:.961" transform="translate(-18.38 -7.5)"/>
  <path fill="#cb3191"
        d="M105.5 133.5a59.562 59.562 0 0 0 9 5v11a46.46 46.46 0 0 1-8 4.5c-.837 1.011-1.17 2.178-1 3.5-6.432 1.307-12.766 1.307-19 0v-3c8.451-2.04 11.451-7.374 9-16 3.35-1.696 6.683-3.363 10-5z"
        style="opacity:.924" transform="translate(-18.38 -7.5)"/>
  <path fill="#b162a6"
        d="m123.5 133.5 10 5v7c-4.007 3.674-8.673 6.341-14 8a21.614 21.614 0 0 0-5-4v-11a59.043 59.043 0 0 0 9-5z"
        style="opacity:.945" transform="translate(-18.38 -7.5)"/>
  <path fill="#f27031"
        d="M28.5 134.5a82.227 82.227 0 0 1 11 5c.315 3.871-.018 7.538-1 11a256.891 256.891 0 0 1-19-10c2.45-2.777 5.45-4.777 9-6z"
        style="opacity:.811" transform="translate(-18.38 -7.5)"/>
  <path fill="#bd2125"
        d="M67.5 133.5a59.024 59.024 0 0 0 9 5v12c-2.174.25-3.84 1.25-5 3-5.327-1.659-9.993-4.326-14-8a13.118 13.118 0 0 1 1-7 59.572 59.572 0 0 1 9-5z"
        style="opacity:.95" transform="translate(-18.38 -7.5)"/>
  <path fill="#6c297b"
        d="M141.5 133.5a88.153 88.153 0 0 0 11 6v11c-2.508 2.424-5.508 4.09-9 5-3.04-1.18-5.706-2.847-8-5 1.952-1.285 3.618-2.951 5-5-2.368-2.648-4.702-2.648-7 0v-7c3.04-1.18 5.706-2.847 8-5z"
        style="opacity:.894" transform="translate(-18.38 -7.5)"/>
  <path fill="#782a8f"
        d="M162.5 134.5a37.779 37.779 0 0 1 9 5 170.794 170.794 0 0 1-19 11v-11c3.35-1.696 6.683-3.363 10-5z"
        style="opacity:.814" transform="translate(-18.38 -7.5)"/>
  <path fill="#f15933"
        d="M55.5 150.5c-2.964 1.308-5.297 3.308-7 6a37.785 37.785 0 0 1-10-6c.982-3.462 1.315-7.129 1-11 1.238-.912 2.571-1.079 4-.5a50.125 50.125 0 0 0 12 11.5z"
        style="opacity:.827" transform="translate(-18.38 -7.5)"/>
  <path fill="#ed428b"
        d="m76.5 150.5 10 4v3c-5.388-.262-10.388-1.595-15-4 1.16-1.75 2.826-2.75 5-3z"
        style="opacity:.765" transform="translate(-18.38 -7.5)"/>
  <path fill="#9c3995"
        d="M114.5 149.5a21.614 21.614 0 0 1 5 4c-4.305 2.246-8.971 3.58-14 4-.17-1.322.163-2.489 1-3.5a46.46 46.46 0 0 0 8-4.5z"
        style="opacity:.73" transform="translate(-18.38 -7.5)"/>
  <path fill="#ef3839"
        d="M55.5 150.5a53.734 53.734 0 0 0 12 7c.31 3.213-.023 6.213-1 9a117.904 117.904 0 0 1-18-10c1.703-2.692 4.036-4.692 7-6z"
        style="opacity:.784" transform="translate(-18.38 -7.5)"/>
  <path fill="#8f4e9e"
        d="M135.5 150.5c2.294 2.153 4.96 3.82 8 5a89.302 89.302 0 0 1-19 11c-.977-2.787-1.31-5.787-1-9l12-7z"
        style="opacity:.791" transform="translate(-18.38 -7.5)"/>
  <path fill="#983894"
        d="M123.5 157.5c-.31 3.213.023 6.213 1 9a37.79 37.79 0 0 1-10 6c-2.661-3.002-5.995-5.002-10-6 .734-1.208 1.067-2.541 1-4a69.305 69.305 0 0 0 18-5z"
        style="opacity:.87" transform="translate(-18.38 -7.5)"/>
  <path fill="#ec408a"
        d="M67.5 157.5a61.414 61.414 0 0 0 19 5c.262 1.478-.071 2.811-1 4-3.583 1.28-6.583 3.28-9 6a37.785 37.785 0 0 1-10-6c.977-2.787 1.31-5.787 1-9z"
        style="opacity:.88" transform="translate(-18.38 -7.5)"/>
  <path fill="#cb3191"
        d="M86.5 162.5c6.29 1.25 12.623 1.25 19 0 .067 1.459-.266 2.792-1 4a36.429 36.429 0 0 0-8.5 5 88.645 88.645 0 0 1-1.5 12c-6.036-3.681-12.036-7.348-18-11 2.417-2.72 5.417-4.72 9-6 .929-1.189 1.262-2.522 1-4z"
        style="opacity:.888" transform="translate(-18.38 -7.5)"/>
  <path fill="#74206a"
        d="M104.5 166.5c4.005.998 7.339 2.998 10 6a145.788 145.788 0 0 1-20 11 88.645 88.645 0 0 0 1.5-12 36.429 36.429 0 0 1 8.5-5z"
        style="opacity:.885" transform="translate(-18.38 -7.5)"/>
</svg>
