<?xml version="1.0" encoding="iso-8859-1"?>
<!-- Uploaded to: SVG Repo, www.svgrepo.com, Generator: SVG Repo Mixer Tools -->
<!DOCTYPE svg PUBLIC "-//W3C//DTD SVG 1.1//EN" "http://www.w3.org/Graphics/SVG/1.1/DTD/svg11.dtd">
<svg fill="#000000" height="800px" width="800px" version="1.1" id="Capa_1" xmlns="http://www.w3.org/2000/svg" xmlns:xlink="http://www.w3.org/1999/xlink" 
	 viewBox="0 0 367.732 367.732" xml:space="preserve">
<g>
	<path d="M322.542,132.8c-0.613,0-1.204,0.093-1.761,0.264v-19.562c0-12.469-10.145-22.613-22.613-22.613H28.132
		C12.62,90.888,0,103.508,0,119.02v48.369c0,15.512,12.62,28.132,28.132,28.132h270.036c12.469,0,22.613-10.145,22.613-22.613
		v-28.372c0.557,0.171,1.148,0.264,1.761,0.264c18.301,0,33.19,14.889,33.19,33.191v10.663c0,18.301-14.89,33.19-33.19,33.19
		h-73.126c-15.163,0-27.5,12.336-27.5,27.5s12.337,27.5,27.5,27.5h30.935c3.313,0,6-2.687,6-6c0-3.314-2.687-6-6-6h-30.935
		c-8.547,0-15.5-6.953-15.5-15.5s6.953-15.5,15.5-15.5h73.126c24.918,0,45.19-20.272,45.19-45.19v-10.663
		C367.732,153.072,347.46,132.8,322.542,132.8z M308.781,172.908c0,5.852-4.761,10.613-10.613,10.613H28.132
		c-8.896,0-16.132-7.237-16.132-16.132V119.02c0-8.895,7.236-16.132,16.132-16.132h270.036c5.853,0,10.613,4.761,10.613,10.613
		V172.908z"/>
	<path d="M291.328,115.25h-21.954c-3.313,0-6,2.687-6,6v43.909c0,3.313,2.687,6,6,6h21.954c3.313,0,6-2.687,6-6V121.25
		C297.328,117.937,294.642,115.25,291.328,115.25z M285.328,127.25v9.955h-9.954v-9.955H285.328z M275.374,159.159v-9.955h9.954
		v9.955H275.374z"/>
	<path d="M54.253,116.949c-14.478,0-26.256,11.778-26.256,26.256s11.778,26.256,26.256,26.256s26.256-11.778,26.256-26.256
		S68.73,116.949,54.253,116.949z M54.253,157.46c-7.86,0-14.256-6.395-14.256-14.256s6.396-14.256,14.256-14.256
		s14.256,6.395,14.256,14.256S62.113,157.46,54.253,157.46z"/>
	<path d="M112.141,116.949c-14.478,0-26.256,11.778-26.256,26.256s11.778,26.256,26.256,26.256s26.256-11.778,26.256-26.256
		S126.618,116.949,112.141,116.949z M112.141,157.46c-7.86,0-14.256-6.395-14.256-14.256s6.396-14.256,14.256-14.256
		s14.256,6.395,14.256,14.256S120.001,157.46,112.141,157.46z"/>
	<path d="M170.028,116.949c-14.478,0-26.256,11.778-26.256,26.256s11.778,26.256,26.256,26.256s26.256-11.778,26.256-26.256
		S184.506,116.949,170.028,116.949z M170.028,157.46c-7.86,0-14.256-6.395-14.256-14.256s6.396-14.256,14.256-14.256
		s14.256,6.395,14.256,14.256S177.889,157.46,170.028,157.46z"/>
	<path d="M227.916,116.949c-14.478,0-26.256,11.778-26.256,26.256s11.778,26.256,26.256,26.256s26.256-11.778,26.256-26.256
		S242.394,116.949,227.916,116.949z M227.916,157.46c-7.86,0-14.256-6.395-14.256-14.256s6.396-14.256,14.256-14.256
		s14.256,6.395,14.256,14.256S235.776,157.46,227.916,157.46z"/>
	<circle cx="54.253" cy="136.705" r="3.25"/>
	<circle cx="54.253" cy="149.705" r="3.25"/>
	<circle cx="112.141" cy="136.705" r="3.25"/>
	<circle cx="112.141" cy="149.705" r="3.25"/>
	<circle cx="170.029" cy="136.705" r="3.25"/>
	<circle cx="170.029" cy="149.705" r="3.25"/>
	<circle cx="227.917" cy="136.705" r="3.25"/>
	<circle cx="227.917" cy="149.705" r="3.25"/>
</g>
</svg>