<?xml version="1.0" encoding="utf-8"?>
<!-- Uploaded to: SVG Repo, www.svgrepo.com, Generator: SVG Repo Mixer Tools -->
<svg width="800px" height="800px" viewBox="0 0 1024 1024" class="icon"  version="1.1" xmlns="http://www.w3.org/2000/svg"><path d="M276.8 302.3h470.4v212.3H276.8z" fill="#FFD632" /><path d="M752.7 520.1H271.3V296.8h481.4v223.3z m-470.4-11h459.4V307.8H282.3v201.3z" fill="#333336" /><path d="M363.8 192.8h296.5v271.6H363.8z" fill="#ECEFE8" /><path d="M665.7 470H358.3V187.3h307.5V470z m-296.4-11h285.5V198.3H369.3V459z" fill="#333336" /><path d="M842.7 781.8H181.3c-19.1 0-34.6-15.5-34.6-34.6V460.9c0-19.1 15.5-34.6 34.6-34.6h661.4c19.1 0 34.6 15.5 34.6 34.6v286.3c0 19.1-15.5 34.6-34.6 34.6z" fill="#68A240" /><path d="M842.7 787.3H181.3c-22.1 0-40.1-18-40.1-40.1V460.9c0-22.1 18-40.1 40.1-40.1h661.4c22.1 0 40.1 18 40.1 40.1v286.3c0 22.1-18 40.1-40.1 40.1zM181.3 431.8c-16 0-29.1 13.1-29.1 29.1v286.3c0 16 13.1 29.1 29.1 29.1h661.4c16 0 29.1-13.1 29.1-29.1V460.9c0-16-13.1-29.1-29.1-29.1H181.3z" fill="#333336" /><path d="M822 831.2H202l-11.3-49.4h642.6z" fill="#D5D9CF" /><path d="M826.4 836.7H197.6l-13.7-60.4h656.3l-13.8 60.4z m-620-11h611.3l8.7-38.4H197.6l8.8 38.4z" fill="#333336" /><path d="M758.5 781.8h-493V667.1c0-19.7 16-35.7 35.7-35.7h421.6c19.7 0 35.7 16 35.7 35.7v114.7z" fill="#D5D9CF" /><path d="M764 787.3H260V667.1c0-22.7 18.5-41.2 41.2-41.2h421.6c22.7 0 41.2 18.5 41.2 41.2v120.2z m-493-11h482V667.1c0-16.6-13.5-30.2-30.2-30.2H301.2c-16.6 0-30.2 13.5-30.2 30.2v109.2z" fill="#333336" /><path d="M265.5 738h493v43.8h-493z" fill="#68A240" /><path d="M764 787.3H260v-54.8h504v54.8z m-493-11h482v-32.8H271v32.8z" fill="#333336" /><path d="M575.2 584.3V482.1c0-12.8 10.4-23.3 23.3-23.3h220c12.8 0 23.3 10.4 23.3 23.3v102.1" fill="#FFD632" /><path d="M847.2 584.3h-11V482.1c0-9.8-8-17.8-17.8-17.8h-220c-9.8 0-17.8 8-17.8 17.8v102.1h-11V482.1c0-15.9 12.9-28.8 28.8-28.8h220c15.9 0 28.8 12.9 28.8 28.8v102.2z" fill="#333336" /><path d="M145.1 578.8h730.6v11H145.1z" fill="#333336" /><path d="M784.5 523.1m-23 0a23 23 0 1 0 46 0 23 23 0 1 0-46 0Z" fill="#ECEFE8" /><path d="M784.5 550.1c-14.9 0-27-12.1-27-27s12.1-27 27-27 27 12.1 27 27-12.1 27-27 27z m0-46c-10.5 0-19 8.5-19 19s8.5 19 19 19 19-8.5 19-19-8.5-19-19-19z" fill="#333336" /><path d="M627.7 545.8l-16.6-16.6c-3.6-3.6-3.6-9.4 0-13l16.6-16.6c5.8-5.8 15.7-1.7 15.7 6.5v33.2c0 8.2-9.9 12.3-15.7 6.5z" fill="#ECEFE8" /><path d="M634.1 552.5c-3.4 0-6.7-1.3-9.3-3.9L608.2 532c-2.5-2.5-3.9-5.8-3.9-9.3 0-3.5 1.4-6.9 3.9-9.3l16.6-16.6c3.9-3.9 9.4-5 14.4-2.9s8.2 6.8 8.2 12.2v33.2c0 5.4-3.1 10.1-8.2 12.2-1.6 0.7-3.4 1-5.1 1z m0-51.7c-1.1 0-2.4 0.3-3.6 1.5L613.9 519c-1 1-1.5 2.3-1.5 3.7 0 1.4 0.5 2.7 1.5 3.7l16.6 16.6c2.3 2.3 4.9 1.4 5.7 1.1 0.8-0.3 3.2-1.6 3.2-4.8v-33.2c0-3.2-2.5-4.5-3.2-4.8-0.4-0.2-1.1-0.5-2.1-0.5z" fill="#333336" /><path d="M699 545.8l16.6-16.6c3.6-3.6 3.6-9.4 0-13L699 499.5c-5.8-5.8-15.7-1.7-15.7 6.5v33.2c-0.1 8.3 9.8 12.4 15.7 6.6z" fill="#ECEFE8" /><path d="M692.5 552.5c-1.7 0-3.5-0.3-5.1-1-5-2.1-8.2-6.8-8.2-12.2v-33.2c0-5.4 3.1-10.1 8.2-12.2 5-2.1 10.6-1 14.4 2.9l16.6 16.6c5.2 5.2 5.2 13.5 0 18.7l-16.6 16.6c-2.6 2.5-5.9 3.8-9.3 3.8z m0-51.7c-1 0-1.7 0.3-2.1 0.4-0.8 0.3-3.2 1.6-3.2 4.8v33.2c0 3.2 2.5 4.5 3.2 4.8 0.8 0.3 3.4 1.2 5.7-1.1l16.6-16.6c2-2 2-5.3 0-7.4l-16.6-16.6c-1.2-1.1-2.5-1.5-3.6-1.5z" fill="#333336" /></svg>