<svg xmlns="http://www.w3.org/2000/svg" id="logosandtypes_com" width="16"
     height="16" version="1.1" viewBox="0 0 150 150">
  <style id="style524">.st2{fill:#00a0df;fill-rule:evenodd;clip-rule:evenodd}
  </style>
  <path id="Layer_3" fill="none" d="M0 0h150v150H0Z"/>
  <g id="ubiquiti_network">
    <path id="path527"
          d="M20.6 12.9h6.8v7h-6.8ZM34 48.2h6.8v7H34Zm0-21.7h6.8v7H34Zm6.8-6.9h6.8v7h-6.8zm0 18.6h6.8v7h-6.8zm6.7-8.5h6.8v7h-6.8z"
          style="fill:#00a0df"/>
    <path id="path529"
          d="M20.6 31.3h6.8v37.3H34V62h7v14.6h6.8V52.2h6.7v50.6s.9 20.8 20.3 32c-20 0-54.1-9-54.1-49.3z"
          class="st2"/>
    <path id="path531"
          d="M57.9 108.7s3.6 17.6 22.7 26.1c17.6 0 51.2-14.1 47.9-53 .1 0-12.3 48.8-70.6 26.9z"
          class="st2"/>
    <path id="path533"
          d="M94 110.5s26.9-1.5 34.8-37.8v-59S95 9.8 95 34.8c0 20.5.3 58.3 0 71.2 0 1.7-.3 3.2-1 4.5z"
          class="st2"/>
  </g>
</svg>
