<svg xmlns="http://www.w3.org/2000/svg" xml:space="preserve" width="13.511"
     height="16" viewBox="0 0 38 45"><ellipse cx="19.5" cy="34.5" rx="11.5" ry="10.5" style="fill:#47667f"/>
  <ellipse cx="19.5" cy="34" rx="10.988" ry="9.562" style="fill:#c5cad5"/>
  <path d="m5 10 19 11v22L6 30z" style="fill:#c5cad5"
        transform="translate(-5 -1)"/>
  <path d="M43 10 24 21v22l18-13z" style="fill:#6d83b3"
        transform="translate(-5 -1)"/>
  <path
    d="M19.5 43.562c.271 0 .536-.018.802-.035l9.811-7.086A8.378 8.378 0 0 0 30.488 34c0-.096-.013-.189-.016-.285L19 42 8.538 34.444a8.454 8.454 0 0 0 .713 2.982l8.27 5.973c.643.102 1.302.163 1.979.163z"
    style="fill:#5a6e91"/>
  <path d="m5 10 19 11 19-11-19-9z" style="fill:#eaf4f8"
        transform="translate(-5 -1)"/>
  <path
    d="M11.65 9.85 24 17l12.35-7.15L24 4zM40 28l.645-12.9L27 23v14.389zM8 28l-.645-12.9L21 23v14.389z"
    style="fill:#34495e" transform="translate(-5 -1)"/>
  <path
    d="m19 5.5 2.406 1.188-2.437 3.343 7.281-2.375-1.594 3.688 4.625-1.625-2.062 4.469L30 16"
    style="fill:none;stroke:#eaf4f8;stroke-miterlimit:10"
    transform="translate(-5 -1)"/>
  <path
    d="M23.821 26.401c.063.491-.501 2.796-.533 3.079-.036.321-.211.491-.543.625-.092-.869-.187-1.709-.267-2.552-.022-.236.205-.267.371-.397.063.687.127 1.443.186 2.087.021.003.341-1.532.45-2.252.039-.256.121-.451.336-.59zM33.779 21.403c-.117.276-.084.765-.517.962-.026-.26.08-.476.162-.679.181-.449.242-.886.015-1.331-.108-.211.048-.288.181-.37.232-.143.133.159.275.191.156-.202.061-.591.431-.673.07.125-.025.246-.069.347-.222.509-.291 1.012-.023 1.525.128.245-.022.332-.192.433-.033.02-.088.058-.154-.095-.042-.098-.07-.199-.109-.31zM23.995 28.974c.048-.594.108-1.188.138-1.783.011-.216.079-.35.343-.436-.047.731-.088 1.435-.139 2.139-.012.169-.058.231-.235.304-.107.045-.107-.224-.107-.224zM24.506 25.81c.166.09.05.352-.044.517-.044.079-.101.171-.202.155-.119-.018-.107-.14-.112-.225-.006-.106.166-.551.358-.447zM14.753 28.691l-1.159-.83c.082.422.244.719.534.94.264.202.533.396.808.583.133.09.215.123.13.263-.112.185-.228.076-.311.029-.867-.489-1.381-1.221-1.51-2.213-.014-.105-.032-.212-.026-.317.013-.224.013-.471.25-.59.222-.111.37.079.529.186.242.163.47.349.715.508.146.095.177.167.099.292-.118.189-.222.036-.3-.011-.171-.101-.323-.232-.488-.344-.137-.093-.411-.285-.446-.004-.033.265.032.259.17.36.312.226.626.45.935.679.212.156.21.159.07.469zM13.341 28.276c.129.106-.081.339-.241.213-.355-.278-.728-.535-1.094-.8-.153-.111-.208-.274-.226-.449-.071-.687-.133-1.375-.206-2.063-.011-.106.004-.15.115-.132.102.088.16.185.171.333.03.407.065.781.121 1.219.094.742.22.866.66 1.146.267.171.369.263.7.533zM24.84 28.579c.042-.727.077-1.389.121-2.05.015-.217.027-.223.312-.196.098.009.168-.399.381-.494.009.238.035.425-.16.606-.164.152-.225.383-.239.615-.021.358-.066.715-.068 1.072-.002.226-.109.332-.347.447zM30.279 24.281c-.133.036-.158-.038-.149-.147.04-.479.112-1.957.153-2.282.012-.095.063-.25-.067-.269-.137-.021-.201.111-.249.244-.101.276-.338 2.797-.121 3.059.292.13.462-.279.433-.605 0 0 0-.001 0 0 0-.001 0-.001 0 0zM26.613 25.144c-.02.008-.214.199-.232-.023-.012-.154-.004-.308-.005-.463v-.001c-.181-.008-.211.138-.221.256-.022.278-.038.548-.253.765-.046.046-.071.177-.04.224.236.353.074.73.08 1.095.004.233-.129.576.088.66.264.102.504-.594.498-.593-.208.015-.236-.31-.226-.481.022-.378-.108-.801.289-1.095.085-.061.042-.225.022-.344zM32.606 20.67c-.523.425-.588 1.125-.633 1.768-.019.275.031.816.457.613.749-.357.738-1.261.74-2.057.001-.5-.18-.636-.564-.324zm-.147 1.871c-.144 0-.108-.255-.1-.411.02-.417.131-1.058.38-1.058.092 0 .097.116.1.197.014.345-.066 1.272-.38 1.272zM7.698 24.6c-.19-.08-.29-.24-.37-.42-.25-.51-.51-1.01-.76-1.52.291.17.669.37.749.32.212-.15-.16-.59-.29-.69-.18-.13-.443-.329-.693-.519.032.253.076 1.247.143 1.659.02.08.07.21-.05.24-.12.03-.19-.09-.2-.19-.05-.41-.28-2.27-.18-2.42.73.52 1.6.92 1.72 1.98.04.44-.07.6-.47.56.14.27.28.52.4.78.031.06.171.15.001.22zM11.438 26.849a11.532 11.532 0 0 1-.774-.56c-.451-.357-.616-.857-.616-1.406 0-.344.173-.418.457-.23.188.125.362.27.553.39.065.041.143.209.245.028.065-.117.082-.21-.054-.303-.305-.208-.595-.437-.902-.642-.172-.115-.362-.184-.506.055-.209.688-.029 1.337.305 1.917.266.461.703.732 1.082 1.068.04.035.225.187.31.04.094-.164.047-.259-.1-.357zM5.733 21.094c-.329-.601-1.353-1.245-1.395-1.273-.402-.276-.622-.184-.68.304-.042.361.068.703.159 1.049.204.779.815 1.201 1.408 1.641.5.268.696.239.734-.315.006-.465-.1-1.176-.226-1.406zm-.106 1.248c-.048.109-.115.164-.248.128-.721-.194-1.438-1.125-1.44-1.883 0-.143-.024-.305.123-.395.162-.1.323.028.44.103.605.385 1.091.83 1.166 1.619.014.147.02.289-.041.428zM31.756 22.359c-.151-.348-.072-.579.01-.87.039-.137.156-.716-.269-.658-.297.041-.656.416-.722.703-.115.509-.159 2.769-.159 2.769.34-.151.595-.391.792-.664.272-.377.531-.858.348-1.28zm-.328.552c-.027.282-.11.538-.414.68 0-.263-.007-.498.003-.733.007-.175.14-.284.289-.267.138.017.134.199.122.32zm.02-1.27c-.034.223-.088.442-.382.616.014-.263.013-.473.04-.679a.22.22 0 0 1 .227-.187c.145.012.13.151.115.25zM27.976 24.087c-.272.007-.248.253-.26.354-.002.021-.107 1.603-.15 1.669-.054.08-.105.212-.23.164-.102-.038-.073-.161-.068-.25.019-.357.05-.713.064-1.07.004-.107.08-.364-.11-.338-.278.044-.313.251-.319.477-.033.474-.132.945-.08 1.423.026.249.102.558.429.371a.769.769 0 0 0 .344-.471c.441.076.33-.273.352-.475.052-.482.075-.968.095-1.454.006-.132.079-.288-.067-.4zM9.212 24.077a60.042 60.042 0 0 0-.387-.994c-.034-.086-.087-.176-.192-.18-.124-.005-.127.111-.156.194l-.566 1.643c.024.13.193.256.358.082.054-.133.349-.966.477-1.353l.477 1.302c-.284 0-.578-.383-.665-.273-.165.208.363.599.656.792.167.11.318.463.367.61.049.143.193.363.402.204a559.1 559.1 0 0 0-.771-2.027ZM28.948 23.329c-.561.385-.582.786-.388.814.077-.072.148-.149.23-.213.078-.061.176-.192.262-.097.083.091.08.25-.029.36-.065.066-.141.121-.207.185-.344.332-.486.75-.5 1.216-.003.118.006.257.143.298.109.033.215-.043.27-.129.146-.23.33-.4.6-.466.032-.639.096-1.103.096-1.915-.001-.252-.283-.186-.477-.053zm-.145 1.951c-.048.033-.114.017-.123-.042-.045-.274.123-.446.356-.614.034.022-.001-.008 0 0 .032.258.003.495-.233.656z"
    style="fill:#ecf0f1"/>
</svg>
