<svg id="Capa_1" enable-background="new 0 0 512 512" height="512" viewBox="0 0 512 512" width="512" xmlns="http://www.w3.org/2000/svg"><g><path d="m274.827 168.911-6.838-7.695h-26.426l-4.39 7.695c2.435 12.114-4.47 24.893-13.052 30.873h63.758c-8.582-5.981-15.487-18.759-13.052-30.873z" fill="#2b4d66"/><g><path d="m303.239 207.51h-94.478c-4.268 0-7.726-3.459-7.726-7.726s3.459-7.726 7.726-7.726h94.478c4.268 0 7.726 3.459 7.726 7.726s-3.458 7.726-7.726 7.726z" fill="#365e7d"/></g><path d="m351.606 128.558-9.632-7.695h-174.471l-7.109 7.695v26.978c0 7.386 5.988 13.374 13.374 13.374h164.463c7.386 0 13.374-5.988 13.374-13.374v-26.978z" fill="#d0e2e7"/><path d="m341.974 120.864h-20.957l9.632 7.695v26.978c0 7.386-5.988 13.374-13.374 13.374h20.957c7.386 0 13.374-5.988 13.374-13.374v-26.978z" fill="#b4d0d5"/><path d="m351.606 128.558h-191.212v-93.358c0-7.386 5.988-13.374 13.374-13.374h164.463c7.386 0 13.374 5.988 13.374 13.374v93.358z" fill="#f6f9f9"/><path d="m338.232 21.826h-20.957c7.386 0 13.374 5.988 13.374 13.374v93.358h20.957v-93.358c0-7.386-5.988-13.374-13.374-13.374z" fill="#dfeaef"/><path d="m114.433 451.574-6.838-7.695h-26.426l-4.39 7.695c2.435 12.114-4.47 24.893-13.052 30.874h63.758c-8.582-5.981-15.488-18.76-13.052-30.874z" fill="#2b4d66"/><g><path d="m142.845 490.174h-94.478c-4.268 0-7.726-3.459-7.726-7.726s3.459-7.726 7.726-7.726h94.478c4.268 0 7.726 3.459 7.726 7.726s-3.459 7.726-7.726 7.726z" fill="#365e7d"/></g><path d="m191.212 411.222-9.632-7.695h-174.471l-7.109 7.695v26.978c0 7.386 5.988 13.374 13.374 13.374h164.463c7.386 0 13.374-5.988 13.374-13.374v-26.978z" fill="#d0e2e7"/><path d="m181.58 403.527h-20.957l9.632 7.695v26.978c0 7.386-5.988 13.374-13.374 13.374h20.957c7.386 0 13.374-5.988 13.374-13.374v-26.978z" fill="#b4d0d5"/><path d="m191.212 411.222h-191.212v-93.358c0-7.386 5.988-13.374 13.374-13.374h164.463c7.386 0 13.374 5.988 13.374 13.374v93.358z" fill="#f6f9f9"/><path d="m177.837 304.489h-20.957c7.386 0 13.374 5.988 13.374 13.374v93.358h20.957v-93.358c.001-7.386-5.987-13.374-13.374-13.374z" fill="#dfeaef"/><path d="m435.221 451.574-6.838-7.695h-26.426l-4.39 7.695c2.435 12.114-4.47 24.893-13.052 30.874h63.758c-8.582-5.981-15.487-18.76-13.052-30.874z" fill="#2b4d66"/><g><path d="m463.633 490.174h-94.478c-4.268 0-7.726-3.459-7.726-7.726s3.459-7.726 7.726-7.726h94.478c4.268 0 7.726 3.459 7.726 7.726s-3.458 7.726-7.726 7.726z" fill="#365e7d"/></g><path d="m512 411.222-9.632-7.695h-174.471l-7.109 7.695v26.978c0 7.386 5.988 13.374 13.374 13.374h164.463c7.386 0 13.374-5.988 13.374-13.374v-26.978z" fill="#d0e2e7"/><path d="m502.368 403.527h-20.957l9.632 7.695v26.978c0 7.386-5.988 13.374-13.374 13.374h20.957c7.386 0 13.374-5.988 13.374-13.374v-26.978z" fill="#b4d0d5"/><path d="m512 411.222h-191.212v-93.358c0-7.386 5.988-13.374 13.374-13.374h164.463c7.386 0 13.374 5.988 13.374 13.374v93.358z" fill="#f6f9f9"/><path d="m498.626 304.489h-20.957c7.386 0 13.374 5.988 13.374 13.374v93.358h20.957v-93.358c0-7.386-5.988-13.374-13.374-13.374z" fill="#dfeaef"/><g><path d="m163.26 279.241c-1.893 0-3.792-.692-5.283-2.09-3.113-2.919-3.271-7.808-.352-10.922l40.627-43.337c2.917-3.113 7.807-3.272 10.922-.353 3.113 2.919 3.271 7.808.352 10.921l-40.627 43.338c-1.521 1.623-3.577 2.443-5.639 2.443z" fill="#2b4d66"/></g><g><path d="m348.74 279.241c-2.061 0-4.118-.82-5.639-2.442l-40.627-43.338c-2.918-3.113-2.761-8.003.352-10.921 3.114-2.919 8.004-2.761 10.922.353l40.627 43.337c2.919 3.114 2.761 8.003-.352 10.922-1.491 1.396-3.39 2.089-5.283 2.089z" fill="#2b4d66"/></g><g><path d="m289.91 378.165h-67.821c-4.268 0-7.726-3.459-7.726-7.726s3.459-7.726 7.726-7.726h67.821c4.268 0 7.726 3.459 7.726 7.726s-3.458 7.726-7.726 7.726z" fill="#2b4d66"/></g><g><path d="m291.161 82.919h-70.321c-4.268 0-7.726-3.459-7.726-7.726s3.459-7.726 7.726-7.726h70.321c4.268 0 7.726 3.459 7.726 7.726 0 4.266-3.459 7.726-7.726 7.726z" fill="#90d8f9"/></g></g></svg>