<?xml version="1.0" encoding="iso-8859-1"?>
<!-- Uploaded to: SVG Repo, www.svgrepo.com, Generator: SVG Repo Mixer Tools -->
<svg height="800px" width="800px" version="1.1" id="Layer_1" xmlns="http://www.w3.org/2000/svg" xmlns:xlink="http://www.w3.org/1999/xlink" 
	 viewBox="0 0 392.638 392.638" xml:space="preserve">
<path style="fill:#194F82;" d="M273.956,355.891c-8.469-16.873-25.729-27.539-44.671-27.539h-22.109v-96.259
	c15.321-4.719,26.505-18.941,26.505-35.749c0-20.622-16.743-37.43-37.43-37.43s-37.43,16.743-37.43,37.43
	c0,16.873,11.184,31.095,26.505,35.749v96.259h-21.98c-18.877,0-36.137,10.667-44.671,27.539l-10.537,20.881
	c-3.62,7.24,1.616,15.838,9.762,15.838h156.768c8.145,0,13.382-8.598,9.762-15.838L273.956,355.891z M180.735,196.343
	c0-8.598,7.046-15.58,15.58-15.58c8.598,0,15.58,7.046,15.58,15.58c0,8.533-7.046,15.58-15.58,15.58
	C187.782,211.923,180.735,204.941,180.735,196.343z M135.677,370.824l2.521-5.107c4.784-9.568,14.481-15.515,25.212-15.515h65.939
	c10.731,0,20.428,5.947,25.212,15.515l2.521,5.107H135.677z"/>
<path style="fill:#FFC10D;" d="M254.497,365.717c-4.784-9.568-14.481-15.515-25.212-15.515h-65.939
	c-10.731,0-20.299,5.947-25.212,15.515l-2.521,5.107h121.471L254.497,365.717z"/>
<g>
	<path style="fill:#194F82;" d="M335.176,57.483c-76.606-76.606-201.115-76.606-277.721,0s-76.606,201.115,0,277.721
		c4.267,4.267,11.119,4.267,15.451,0c4.267-4.267,4.267-11.119,0-15.451c-68.073-68.073-68.073-178.812,0-246.885
		s178.812-68.073,246.885,0s68.073,178.812,0,246.885c-4.267,4.267-4.267,11.119,0,15.451c4.073,4.073,10.602,4.461,15.451,0
		C411.782,258.598,411.782,134.089,335.176,57.483z"/>
	<path style="fill:#194F82;" d="M297.681,94.978c-55.855-55.855-146.812-55.855-202.731,0c-55.855,55.855-55.855,146.877,0,202.796
		c4.267,4.267,11.119,4.267,15.451,0c4.267-4.267,4.267-11.119,0-15.451c-48.549-46.998-47.127-124.638,0-171.96
		c47.386-47.386,124.574-47.386,171.96,0c45.382,45.188,48.743,122.57,0,171.96c-4.267,4.267-4.267,11.119,0,15.451
		c3.62,3.556,10.15,4.978,15.451,0C353.535,241.855,353.535,150.832,297.681,94.978z"/>
	<path style="fill:#194F82;" d="M244.865,260.279c4.202,4.008,10.796,4.461,15.451,0c35.232-35.232,35.232-92.574,0-127.806
		s-92.574-35.232-127.806,0s-35.232,92.574,0,127.806c4.267,4.267,11.119,4.267,15.451,0c4.267-4.267,4.267-11.119,0-15.451
		c-26.764-26.764-26.764-70.271,0-96.97s70.271-26.764,96.97,0c26.699,26.764,26.764,70.271,0,96.97
		C240.533,249.095,240.533,256.012,244.865,260.279z"/>
</g>
<path style="fill:#56ACE0;" d="M196.315,211.923c8.598,0,15.58-7.046,15.58-15.58c0-8.533-7.046-15.58-15.58-15.58
	c-8.533,0-15.58,7.046-15.58,15.58C180.735,204.877,187.717,211.923,196.315,211.923z"/>
</svg>